/* XPM */
static char * desktop_xpm[] = {
"20 20 123 2",
"  	c None",
". 	c #74448C",
"+ 	c #753E8C",
"@ 	c #763F8E",
"# 	c #78408F",
"$ 	c #794091",
"% 	c #7B4192",
"& 	c #7C4294",
"* 	c #7E4296",
"= 	c #7E4398",
"- 	c #804499",
"; 	c #81449B",
"> 	c #82459D",
", 	c #84469F",
"' 	c #8547A0",
") 	c #8747A1",
"! 	c #8848A3",
"~ 	c #8A49A5",
"{ 	c #8A50A8",
"] 	c #6A3282",
"^ 	c #6C3384",
"/ 	c #6D3386",
"( 	c #6F3488",
"_ 	c #703589",
": 	c #72358B",
"< 	c #73368D",
"[ 	c #75378F",
"} 	c #763890",
"| 	c #783892",
"1 	c #793994",
"2 	c #7A3A96",
"3 	c #7C3A97",
"4 	c #7D3B99",
"5 	c #7F3C9B",
"6 	c #803C9D",
"7 	c #823D9E",
"8 	c #833EA0",
"9 	c #693281",
"0 	c #6B3283",
"a 	c #6E3486",
"b 	c #71358A",
"c 	c #72368C",
"d 	c #74368D",
"e 	c #763891",
"f 	c #783893",
"g 	c #7B3A96",
"h 	c #7C3B98",
"i 	c #7E3B9A",
"j 	c #813D9D",
"k 	c #823D9F",
"l 	c #683180",
"m 	c #6A3281",
"n 	c #6D3385",
"o 	c #6E3487",
"p 	c #703489",
"q 	c #73368C",
"r 	c #74378E",
"s 	c #753790",
"t 	c #773891",
"u 	c #783993",
"v 	c #7A3995",
"w 	c #7B3A97",
"x 	c #7D3B98",
"y 	c #803C9C",
"z 	c #813D9E",
"A 	c #67317E",
"B 	c #693180",
"C 	c #6F3487",
"D 	c #71358B",
"E 	c #763790",
"F 	c #773892",
"G 	c #7A3A95",
"H 	c #66307D",
"I 	c #68317F",
"J 	c #693181",
"K 	c #6B3282",
"L 	c #72368B",
"M 	c #7C3A98",
"N 	c #7E3B99",
"O 	c #65307C",
"P 	c #67307E",
"Q 	c #6C3385",
"R 	c #74368E",
"S 	c #642F7B",
"T 	c #66307C",
"U 	c #793993",
"V 	c #632F79",
"W 	c #652F7B",
"X 	c #67317F",
"Y 	c #622E78",
"Z 	c #632F7A",
"` 	c #652F7C",
" .	c #622E79",
"..	c #642F7A",
"+.	c #703488",
"@.	c #632E79",
"#.	c #A07FAD",
"$.	c #BBA6C5",
"%.	c #AF93BB",
"&.	c #BEA7C8",
"*.	c #A482B2",
"=.	c #825E91",
"-.	c #92759E",
";.	c #8B6A99",
">.	c #8C6B9A",
",.	c #9577A2",
"'.	c #875F97",
").	c #4C285E",
"!.	c #4E2560",
"~.	c #502662",
"{.	c #512663",
"].	c #522665",
"^.	c #532766",
"/.	c #552867",
"(.	c #562869",
"_.	c #56296A",
":.	c #582A6B",
"<.	c #592A6D",
"[.	c #5A2A6E",
"}.	c #5B2B70",
"|.	c #5D2B71",
"1.	c #5E2C72",
"2.	c #5C2F71",
"                                        ",
"                                        ",
"                                        ",
"  . + @ # $ % & * = - ; > , ' ) ! ~ {   ",
"  ] ^ / ( _ : < [ } | 1 2 3 4 5 6 7 8   ",
"  9 0 ^ a ( b c d [ e f 1 g h i 5 j k   ",
"  l m 0 n o p b q r s t u v w x i y z   ",
"  A B ] ^ n C _ D < r E F 1 G 3 4 5 y   ",
"  H I J K ^ / ( _ L < [ e | 1 g M N 5   ",
"  O P I m 0 Q a ( b c R [ t u v g h i   ",
"  S T P l ] 0 n o _ b q r E F U v w 4   ",
"  V W H X B ] ^ / C _ : < [ } F 1 2 3   ",
"  Y Z ` H I J 0 ^ a ( b L d [ e f 1 g   ",
"  Y  ...O P l m 0 n o +.b c r s t u v   ",
"  Y Y @.S H P #.$.%.%.&.*.D q r E F 1   ",
"  Y Y Y Z W H =.-.;.>.,.'._ L < [ e |   ",
"  ).!.!.!.~.{.].^./.(._.:.<.[.}.|.1.2.  ",
"                                        ",
"                                        ",
"                                        "};
