/* XPM */
static char * workspacebuttonactive_xpm[] = {
"28 25 3 1",
" 	c None",
".	c #23252E",
"+	c #962AC3",
"............................",
"............................",
"...++++++++++++++++++++++...",
"..++++++++++++++++++++++++..",
".++++++++++++++++++++++++++.",
".++++++++++++++++++++++++++.",
".++++++++++++++++++++++++++.",
".++++++++++++++++++++++++++.",
".++++++++++++++++++++++++++.",
".++++++++++++++++++++++++++.",
".++++++++++++++++++++++++++.",
".++++++++++++++++++++++++++.",
".++++++++++++++++++++++++++.",
".++++++++++++++++++++++++++.",
".++++++++++++++++++++++++++.",
".++++++++++++++++++++++++++.",
".++++++++++++++++++++++++++.",
".++++++++++++++++++++++++++.",
".++++++++++++++++++++++++++.",
".++++++++++++++++++++++++++.",
".++++++++++++++++++++++++++.",
"..++++++++++++++++++++++++..",
"...++++++++++++++++++++++...",
"............................",
"............................"};
