/* XPM */
static char * desktop_xpm[] = {
"20 20 131 2",
"  	c None",
". 	c #616163",
"+ 	c #5F6062",
"@ 	c #606164",
"# 	c #626366",
"$ 	c #636468",
"% 	c #65666A",
"& 	c #66676C",
"* 	c #67696D",
"= 	c #696A6E",
"- 	c #6A6C70",
"; 	c #6B6D72",
"> 	c #6D6D74",
", 	c #6D6F75",
"' 	c #6E7077",
") 	c #707279",
"! 	c #71737B",
"~ 	c #72757D",
"{ 	c #76787F",
"] 	c #545456",
"^ 	c #555658",
"/ 	c #57575A",
"( 	c #58595C",
"_ 	c #595A5E",
": 	c #5B5C5F",
"< 	c #5C5D61",
"[ 	c #5D5F63",
"} 	c #5F6065",
"| 	c #606267",
"1 	c #616368",
"2 	c #63646A",
"3 	c #64666C",
"4 	c #65676E",
"5 	c #676970",
"6 	c #686A71",
"7 	c #696C73",
"8 	c #6B6D75",
"9 	c #535355",
"0 	c #545557",
"a 	c #565659",
"b 	c #57585B",
"c 	c #5A5B5E",
"d 	c #5B5C60",
"e 	c #5C5E62",
"f 	c #5E5F64",
"g 	c #626369",
"h 	c #63656B",
"i 	c #64666D",
"j 	c #66686E",
"k 	c #686B72",
"l 	c #6A6C74",
"m 	c #525254",
"n 	c #535456",
"o 	c #555557",
"p 	c #565759",
"q 	c #595A5D",
"r 	c #5A5B5F",
"s 	c #5B5D60",
"t 	c #5D5E62",
"u 	c #5F6166",
"v 	c #616268",
"w 	c #626469",
"x 	c #65676D",
"y 	c #66686F",
"z 	c #676A71",
"A 	c #696B72",
"B 	c #515153",
"C 	c #525354",
"D 	c #56575A",
"E 	c #5D5E63",
"F 	c #5E6065",
"G 	c #606166",
"H 	c #62646A",
"I 	c #67696F",
"J 	c #505051",
"K 	c #515253",
"L 	c #616369",
"M 	c #63656A",
"N 	c #4F4F50",
"O 	c #505152",
"P 	c #535455",
"Q 	c #58595D",
"R 	c #616267",
"S 	c #65666D",
"T 	c #4E4E4F",
"U 	c #4F5050",
"V 	c #515152",
"W 	c #555558",
"X 	c #5B5D61",
"Y 	c #5E6064",
"Z 	c #64656B",
"` 	c #4D4D4D",
" .	c #4E4F4F",
"..	c #525355",
"+.	c #606167",
"@.	c #4C4C4C",
"#.	c #4D4D4E",
"$.	c #555659",
"%.	c #57585A",
"&.	c #5E5F63",
"*.	c #4C4C4D",
"=.	c #4E4E4E",
"-.	c #929393",
";.	c #B3B3B4",
">.	c #A4A4A5",
",.	c #A4A4A6",
"'.	c #B5B6B7",
").	c #969799",
"!.	c #4F4F4F",
"~.	c #737374",
"{.	c #878787",
"].	c #7E7F80",
"^.	c #7F7F81",
"/.	c #89898B",
"(.	c #78787A",
"_.	c #3B3B3B",
":.	c #3D3D3D",
"<.	c #3E3E3E",
"[.	c #3F3F40",
"}.	c #404142",
"|.	c #424242",
"1.	c #424344",
"2.	c #434446",
"3.	c #454547",
"4.	c #464649",
"5.	c #46474A",
"6.	c #48494B",
"7.	c #494A4D",
"8.	c #4A4B4E",
"9.	c #4B4C50",
"0.	c #4A4C4F",
"                                        ",
"                                        ",
"                                        ",
"  . + @ # $ % & * = - ; > , ' ) ! ~ {   ",
"  ] ^ / ( _ : < [ } | 1 2 3 4 5 6 7 8   ",
"  9 0 a b ( c d e f } | g h i j 5 k l   ",
"  m n o p b q r s t f u v w h x y z A   ",
"  B C ] ^ D ( q r < E F G 1 H 3 4 I 6   ",
"  J K 9 0 ^ / ( _ d < [ } | L M 3 j 5   ",
"  N O m P 0 a b Q c d e f u R w h S y   ",
"  T U V m n W p b q r X t Y G 1 H Z x   ",
"  `  .J B ..] ^ D ( _ : < [ } +.1 2 3   ",
"  @.#.N J K 9 0 $.%.( c d e &.} | g h   ",
"  @.*.=.N O m n o p b q r d t f u v w   ",
"  @.@.` T J V -.;.>.,.'.).r < E Y G 1   ",
"  @.@.@.#.!.J ~.{.].^./.(._ d < [ } |   ",
"  _.:.:.:.<.[.}.|.1.2.3.4.5.6.7.8.9.0.  ",
"                                        ",
"                                        ",
"                                        "};
