/* XPM */
static char * desktop_xpm[] = {
"20 20 114 2",
"  	c None",
". 	c #FEBF57",
"+ 	c #FEBE54",
"@ 	c #FEBD52",
"# 	c #FEBB50",
"$ 	c #FEBA4F",
"% 	c #FEB94D",
"& 	c #FEB74C",
"* 	c #FEB64A",
"= 	c #FEB549",
"- 	c #FEB348",
"; 	c #FEB246",
"> 	c #FEB144",
", 	c #FEB043",
"' 	c #FEAF41",
") 	c #FEAD3F",
"! 	c #FEAC3E",
"~ 	c #FEAB3C",
"{ 	c #FEA93D",
"] 	c #FEBC4D",
"^ 	c #FEBB4B",
"/ 	c #FEBA49",
"( 	c #FEB848",
"_ 	c #FEB746",
": 	c #FEB645",
"< 	c #FEB443",
"[ 	c #FEB341",
"} 	c #FEB240",
"| 	c #FEB03E",
"1 	c #FEAF3C",
"2 	c #FEAE3B",
"3 	c #FEAC39",
"4 	c #FEAB37",
"5 	c #FEA936",
"6 	c #FEA834",
"7 	c #FEA732",
"8 	c #FEA531",
"9 	c #FEBE4E",
"0 	c #FEBC4C",
"a 	c #FEB949",
"b 	c #FEB847",
"c 	c #FEB544",
"d 	c #FEB13F",
"e 	c #FEAD3A",
"f 	c #FEA935",
"g 	c #FEA632",
"h 	c #FEBF4F",
"i 	c #FEBD4E",
"j 	c #FEBB4A",
"k 	c #FEB442",
"l 	c #FEB241",
"m 	c #FEB03D",
"n 	c #FEAE3C",
"o 	c #FEAC38",
"p 	c #FEAA37",
"q 	c #FEA833",
"r 	c #FEC051",
"s 	c #FEBE4F",
"t 	c #FEBD4D",
"u 	c #FEBA4A",
"v 	c #FEB948",
"w 	c #FEB543",
"x 	c #FEB342",
"y 	c #FEAF3D",
"z 	c #FEAB38",
"A 	c #FEAA36",
"B 	c #FEC152",
"C 	c #FEBF50",
"D 	c #FFC253",
"E 	c #FEB644",
"F 	c #FEAD3B",
"G 	c #FFC355",
"H 	c #FFC456",
"I 	c #FFC354",
"J 	c #FFC153",
"K 	c #FFC557",
"L 	c #FFC254",
"M 	c #FFC659",
"N 	c #FFC455",
"O 	c #FFC75A",
"P 	c #FFC658",
"Q 	c #936F2E",
"R 	c #644A1F",
"S 	c #7A5B25",
"T 	c #7B5B25",
"U 	c #63481C",
"V 	c #936A2A",
"W 	c #FEB23F",
"X 	c #FFC85B",
"Y 	c #FFC759",
"Z 	c #A87F36",
"` 	c #826229",
" .	c #946F2D",
"..	c #946E2C",
"+.	c #825F26",
"@.	c #A87A31",
"#.	c #C69C48",
"$.	c #CCA049",
"%.	c #CC9F47",
"&.	c #CC9E46",
"*.	c #CC9D45",
"=.	c #CC9C43",
"-.	c #CC9A42",
";.	c #CB9A41",
">.	c #CB993F",
",.	c #CB973E",
"'.	c #CB963D",
").	c #CB963B",
"!.	c #CB943A",
"~.	c #CB9339",
"{.	c #CB9237",
"].	c #CB9136",
"^.	c #CB9035",
"/.	c #C58B32",
"                                        ",
"                                        ",
"                                        ",
"  . + @ # $ % & * = - ; > , ' ) ! ~ {   ",
"  ] ^ / ( _ : < [ } | 1 2 3 4 5 6 7 8   ",
"  9 0 ^ a b _ c < [ d | 1 e 3 4 f 6 g   ",
"  h i 0 j a b : c k l d m n e o p f q   ",
"  r s t 0 u v b : w x } d y 2 e z A f   ",
"  B C s t ^ u v _ : w x } | y 2 3 z A   ",
"  D B C 9 ] ^ / ( _ E < [ } | 1 F 3 4   ",
"  G D r C 9 0 ^ a b _ c k [ d | 1 e 3   ",
"  H I J r h i 0 j a b : c k l d m n e   ",
"  K H L B r s t 0 u v b : w x } d y 2   ",
"  M K N L B C s t ^ u v _ : w [ } | y   ",
"  O P K G D B Q R S T U V _ E < [ W |   ",
"  X Y P H G D Z `  ...+.@.b _ c k [ d   ",
"  #.$.%.&.*.=.-.;.>.,.'.).!.~.{.].^./.  ",
"                                        ",
"                                        ",
"                                        "};
