/* XPM */
static char * desktop_xpm[] = {
"20 20 108 2",
"  	c None",
". 	c #2BA99F",
"+ 	c #28A8A0",
"@ 	c #29A9A1",
"# 	c #29AAA2",
"$ 	c #29ABA3",
"% 	c #29ACA5",
"& 	c #2AACA6",
"* 	c #2AADA8",
"= 	c #2AAEA9",
"- 	c #2AAFAB",
"; 	c #2BB0AC",
"> 	c #2BB1AE",
", 	c #2BB2AF",
"' 	c #2BB2B1",
") 	c #2CB2B2",
"! 	c #2CB3B3",
"~ 	c #2CB4B4",
"{ 	c #2FB7B8",
"] 	c #1CA297",
"^ 	c #1CA399",
"/ 	c #1CA39A",
"( 	c #1DA49C",
"_ 	c #1DA59D",
": 	c #1DA69F",
"< 	c #1DA7A0",
"[ 	c #1EA8A2",
"} 	c #1EA8A3",
"| 	c #1EA9A5",
"1 	c #1EAAA6",
"2 	c #1FABA8",
"3 	c #1FACA9",
"4 	c #1FADAB",
"5 	c #1FAEAC",
"6 	c #20AEAE",
"7 	c #20AFAF",
"8 	c #20B0B1",
"9 	c #1CA196",
"0 	c #1CA298",
"a 	c #1CA49B",
"b 	c #1DA59E",
"c 	c #1DA7A1",
"d 	c #1EA9A4",
"e 	c #1EAAA5",
"f 	c #1EAAA7",
"g 	c #20AFAE",
"h 	c #1CA095",
"i 	c #1CA197",
"j 	c #1DA49B",
"k 	c #1EABA7",
"l 	c #1FACAA",
"m 	c #1FAEAD",
"n 	c #1BA094",
"o 	c #1CA195",
"p 	c #1DA69E",
"q 	c #1EA7A1",
"r 	c #1FABA7",
"s 	c #1FADAC",
"t 	c #20AEAD",
"u 	c #1B9F93",
"v 	c #1FADAA",
"w 	c #1B9E92",
"x 	c #1BA095",
"y 	c #1EA9A3",
"z 	c #1B9E91",
"A 	c #1B9F92",
"B 	c #1BA093",
"C 	c #1DA59C",
"D 	c #1B9D8F",
"E 	c #1DA6A0",
"F 	c #1A9D8E",
"G 	c #1B9D90",
"H 	c #1CA299",
"I 	c #1A9C8D",
"J 	c #1A9D8F",
"K 	c #1B9E90",
"L 	c #1A9B8C",
"M 	c #73BFB9",
"N 	c #9DD1CD",
"O 	c #88C9C4",
"P 	c #9ED3CF",
"Q 	c #74C2BD",
"R 	c #1A9B8B",
"S 	c #1A9C8E",
"T 	c #4FA79F",
"U 	c #6BAEA9",
"V 	c #5DABA5",
"W 	c #5DABA6",
"X 	c #6CB0AC",
"Y 	c #50AAA4",
"Z 	c #15786B",
"` 	c #157C6F",
" .	c #157D71",
"..	c #157D72",
"+.	c #167E73",
"@.	c #167E74",
"#.	c #167F75",
"$.	c #168076",
"%.	c #168177",
"&.	c #168179",
"*.	c #16827A",
"=.	c #16827B",
"-.	c #17837C",
";.	c #17847E",
">.	c #17857E",
",.	c #178680",
"'.	c #188681",
").	c #18837E",
"                                        ",
"                                        ",
"                                        ",
"  . + @ # $ % & * = - ; > , ' ) ! ~ {   ",
"  ] ^ / ( _ : < [ } | 1 2 3 4 5 6 7 8   ",
"  9 0 ^ a ( b : c [ d e f 2 3 4 5 g 7   ",
"  h i 0 / j _ b : c [ d e k 2 l 4 m g   ",
"  n o i 0 / j _ p < q } d 1 r 3 l s t   ",
"  u n 9 ] ^ / ( _ : < [ } | 1 2 3 v s   ",
"  w u x 9 0 ^ a ( _ : < [ y | 1 2 3 4   ",
"  z A B x 9 0 ^ a C b : c [ d e f 2 l   ",
"  D z A n o i 0 / j _ p E q } d 1 r 2   ",
"  F G z u n 9 ] H / ( _ p < q } d 1 r   ",
"  I J K w u n 9 ] ^ / ( _ : < [ } | 1   ",
"  L I J K A u M N O O P Q b : c [ d e   ",
"  R L S D z A T U V W X Y C b : c [ d   ",
"  Z `  ...+.@.#.$.%.&.*.=.-.;.>.,.'.).  ",
"                                        ",
"                                        ",
"                                        "};
