/* XPM */
static char * desktop_xpm[] = {
"20 20 71 1",
" 	c None",
".	c #30B2B7",
"+	c #2DB2B8",
"@	c #2DB2B9",
"#	c #2DB3BA",
"$	c #2DB3BB",
"%	c #2DB4BB",
"&	c #2DB4BC",
"*	c #2EB5BD",
"=	c #2EB6BD",
"-	c #2EB6BE",
";	c #2EB7BF",
">	c #2EB8BF",
",	c #2EB8C0",
"'	c #2EB9C0",
")	c #2EB9C1",
"!	c #2EBAC2",
"~	c #32BCC2",
"{	c #21ACB3",
"]	c #21ADB4",
"^	c #21ADB5",
"/	c #21AEB5",
"(	c #21AFB6",
"_	c #21AFB7",
":	c #21B0B7",
"<	c #21B1B8",
"[	c #22B1B9",
"}	c #22B2B9",
"|	c #22B2BA",
"1	c #22B3BB",
"2	c #22B4BB",
"3	c #22B4BC",
"4	c #22B5BD",
"5	c #22B6BD",
"6	c #22B6BE",
"7	c #21ABB2",
"8	c #21ACB4",
"9	c #21AEB6",
"0	c #21B0B8",
"a	c #22B3BA",
"b	c #22B5BC",
"c	c #20ABB2",
"d	c #21ABB3",
"e	c #20AAB1",
"f	c #20AAB2",
"g	c #20A9B0",
"h	c #20A8AF",
"i	c #20A9B1",
"j	c #75C6CA",
"k	c #9FD5D8",
"l	c #8BCED1",
"m	c #8ACED1",
"n	c #A0D6D9",
"o	c #76C7CC",
"p	c #52AEB3",
"q	c #6DB4B7",
"r	c #61B2B6",
"s	c #6EB5B9",
"t	c #53B0B5",
"u	c #198389",
"v	c #1A868C",
"w	c #1A878D",
"x	c #1A888E",
"y	c #1A898E",
"z	c #1A8A8F",
"A	c #1A8A90",
"B	c #1A8B91",
"C	c #1A8B92",
"D	c #1A8C92",
"E	c #1A8D92",
"F	c #1A8D93",
"                    ",
"                    ",
"                    ",
" .+@@#$%&*=-;>,')!~ ",
" {{]^/(_:<[}|123456 ",
" 7{8]/9(:0<[|a13b46 ",
" cd{]]/9(:0<}|a13b4 ",
" ec{{]^/(_:0[}|1234 ",
" ef7{8]/9(_:<[}a123 ",
" gec7{8]/9(:0<[|a13 ",
" geecd{]^/(_:0[}|a2 ",
" hgeec{{]^/(_:<[}|1 ",
" hggec7{8]/9(:0<[|a ",
" hhgiec7{]]/9(:0<}| ",
" hhhgeejklmno(_:0[} ",
" hhhggepqrrst9(_:<[ ",
" uvvvwwxyyzAABCDEFA ",
"                    ",
"                    ",
"                    "};
