/* XPM */
static char * maximizeA_xpm[] = {
"24 54 43 1",
" 	c #12131D",
".	c #389455",
"+	c #49DD70",
"@	c #80BA54",
"#	c #49DC70",
"$	c #389355",
"%	c #2F6944",
"&	c #2E6844",
"*	c #399354",
"=	c #4ADD70",
"-	c #389254",
";	c #2E6644",
">	c #1B7827",
",	c #26BD3C",
"'	c #26BC3C",
")	c #1B7726",
"!	c #1A5625",
"~	c #2FD647",
"{	c #2ED648",
"]	c #3AE65A",
"^	c #3AE55A",
"/	c #34AF50",
"(	c #227B32",
"_	c #237E34",
":	c #44DC69",
"<	c #2ED547",
"[	c #165B20",
"}	c #032702",
"|	c #248136",
"1	c #1B7725",
"2	c #26BD3B",
"3	c #34AD4F",
"4	c #237D33",
"5	c #14571E",
"6	c #175E21",
"7	c #15581E",
"8	c #35B051",
"9	c #27BC3B",
"0	c #34AC4F",
"a	c #2ED446",
"b	c #3AE559",
"c	c #1A5426",
"d	c #27BC3C",
"                        ",
"                        ",
"                        ",
"                        ",
"                        ",
"                        ",
"         .+@@#$         ",
"       %@@@@@@@@&       ",
"      %@@@@@@@@@@&      ",
"      @@@@@@@@@@@@      ",
"     .@@@@@@@@@@@@*     ",
"     +@@@@@@@@@@@@=     ",
"     @@@@@@@@@@@@@@     ",
"     @@@@@@@@@@@@@@     ",
"     +@@@@@@@@@@@@=     ",
"     $@@@@@@@@@@@@-     ",
"      @@@@@@@@@@@@      ",
"      &@@@@@@@@@@;      ",
"       &@@@@@@@@;       ",
"         *#@@#-         ",
"                        ",
"                        ",
"                        ",
"                        ",
"                        ",
"                        ",
"                        ",
"                        ",
"                        ",
"                        ",
"                        ",
"                        ",
"                        ",
"         >,@@')         ",
"       !~@@@@@@{!       ",
"      !]@@@@@@@@^!      ",
"      ~@@@/(((_:@<      ",
"     >@@@@@[}}}|@@1     ",
"     2@@3@@@[}}4@@@     ",
"     @@@45@@@6}4@@@     ",
"     @@@4}5@@@64@@@     ",
"     2@@4}}7@@@8@@9     ",
"     )@@|}}}7@@@@@)     ",
"      @@:_(((0@@@a      ",
"      !@@@@@@@@@bc      ",
"       !@@@@@@@ac       ",
"         1@@@d)         ",
"                        ",
"                        ",
"                        ",
"                        ",
"                        ",
"                        ",
"                        "};
