/* XPM */
static char * minimizeA_xpm[] = {
"24 54 53 1",
" 	c #12131D",
".	c #8F945D",
"+	c #D6DD7F",
"@	c #EDF58A",
"#	c #D5DC7E",
"$	c #8E935D",
"%	c #65694B",
"&	c #ECF489",
"*	c #F1FA8C",
"=	c #64684A",
"-	c #F1FA8B",
";	c #EBF388",
">	c #8E935C",
",	c #D7DD7F",
"'	c #D5DD7F",
")	c #ECF589",
"!	c #ECF48A",
"~	c #EBF389",
"{	c #8D925D",
"]	c #EAF388",
"^	c #F0FA8B",
"/	c #62664A",
"(	c #D4DC7F",
"_	c #846720",
":	c #C9A939",
"<	c #E1C448",
"[	c #E0C447",
"}	c #C8A939",
"|	c #836620",
"1	c #5E4B21",
"2	c #E0C448",
"3	c #F0F484",
"4	c #DFC447",
"5	c #5D4A21",
"6	c #E8D960",
"7	c #E8D95F",
"8	c #DFC346",
"9	c #826620",
"0	c #C9A938",
"a	c #C7A838",
"b	c #E0C549",
"c	c #B2B15F",
"d	c #80773C",
"e	c #B3B25F",
"f	c #DFC448",
"g	c #DFC347",
"h	c #C9A838",
"i	c #EFF383",
"j	c #816521",
"k	c #DEC246",
"l	c #E8D85E",
"m	c #5B4922",
"n	c #C7A839",
"                        ",
"                        ",
"                        ",
"                        ",
"                        ",
"                        ",
"         .+@@#$         ",
"       %&******&=       ",
"      %*********-=      ",
"      &**********;      ",
"     .************>     ",
"     ,************'     ",
"     )************!     ",
"     &************~     ",
"     +************'     ",
"     $************{     ",
"      &**********]      ",
"      =-********^/      ",
"       =~******]/       ",
"         >())({         ",
"                        ",
"                        ",
"                        ",
"                        ",
"                        ",
"                        ",
"                        ",
"                        ",
"                        ",
"                        ",
"                        ",
"                        ",
"                        ",
"         _:<[}|         ",
"       123****345       ",
"      16********75      ",
"      2**********8      ",
"     _3**********39     ",
"     0************a     ",
"     b*cdddddddde*f     ",
"     2*edddddddde*g     ",
"     h************a     ",
"     |3**********ij     ",
"      4**********k      ",
"      57********lm      ",
"       5g3****ikm       ",
"         9n[[nj         ",
"                        ",
"                        ",
"                        ",
"                        ",
"                        ",
"                        ",
"                        "};
