/* XPM */
static char * minimizeO_xpm[] = {
"24 54 32 1",
" 	c #12131D",
".	c #846720",
"+	c #C9A939",
"@	c #E1C448",
"#	c #E0C447",
"$	c #C8A939",
"%	c #836620",
"&	c #5E4B21",
"*	c #E0C448",
"=	c #F0F484",
"-	c #F1FA8C",
";	c #DFC447",
">	c #5D4A21",
",	c #E8D960",
"'	c #E8D95F",
")	c #DFC346",
"!	c #826620",
"~	c #C9A938",
"{	c #C7A838",
"]	c #E0C549",
"^	c #B2B15F",
"/	c #80773C",
"(	c #B3B25F",
"_	c #DFC448",
":	c #DFC347",
"<	c #C9A838",
"[	c #EFF383",
"}	c #816521",
"|	c #DEC246",
"1	c #E8D85E",
"2	c #5B4922",
"3	c #C7A839",
"                        ",
"                        ",
"                        ",
"                        ",
"                        ",
"                        ",
"         .+@#$%         ",
"       &*=----=;>       ",
"      &,--------'>      ",
"      *----------)      ",
"     .=----------=!     ",
"     ~------------{     ",
"     ]-^////////(-_     ",
"     *-(////////(-:     ",
"     <------------{     ",
"     %=----------[}     ",
"      ;----------|      ",
"      >'--------12      ",
"       >:=----[|2       ",
"         !3##3}         ",
"                        ",
"                        ",
"                        ",
"                        ",
"                        ",
"                        ",
"                        ",
"                        ",
"                        ",
"                        ",
"                        ",
"                        ",
"                        ",
"         .+@#$%         ",
"       &*=----=;>       ",
"      &,--------'>      ",
"      *----------)      ",
"     .=----------=!     ",
"     ~------------{     ",
"     ]-^////////(-_     ",
"     *-(////////(-:     ",
"     <------------{     ",
"     %=----------[}     ",
"      ;----------|      ",
"      >'--------12      ",
"       >:=----[|2       ",
"         !3##3}         ",
"                        ",
"                        ",
"                        ",
"                        ",
"                        ",
"                        ",
"                        "};
