/* XPM */
static char * desktop_xpm[] = {
"20 20 98 2",
"  	c None",
". 	c #D12F52",
"+ 	c #D22D4E",
"@ 	c #D42E4E",
"# 	c #D42E4D",
"$ 	c #D62F4D",
"% 	c #D8304C",
"& 	c #D9314C",
"* 	c #DB314B",
"= 	c #DD324A",
"- 	c #DE334A",
"; 	c #E0334A",
"> 	c #E2344A",
", 	c #E33549",
"' 	c #E53649",
") 	c #E53648",
"! 	c #E73748",
"~ 	c #E93847",
"{ 	c #EA3A49",
"] 	c #CC2045",
"^ 	c #CE2045",
"/ 	c #CF2144",
"( 	c #D12244",
"_ 	c #D32343",
": 	c #D42343",
"< 	c #D62442",
"[ 	c #D82541",
"} 	c #D92541",
"| 	c #DB2640",
"1 	c #DD2740",
"2 	c #DE283F",
"3 	c #E0283F",
"4 	c #E2293E",
"5 	c #E32A3E",
"6 	c #E52B3D",
"7 	c #E62B3D",
"8 	c #E82C3C",
"9 	c #CB1F46",
"0 	c #CD2045",
"a 	c #CE2145",
"b 	c #D02144",
"c 	c #D52442",
"d 	c #DA2641",
"e 	c #DF283F",
"f 	c #E0293F",
"g 	c #E42A3D",
"h 	c #E72B3C",
"i 	c #CA1F46",
"j 	c #D02244",
"k 	c #D22243",
"l 	c #D72442",
"m 	c #DC2740",
"n 	c #E1293E",
"o 	c #C81E47",
"p 	c #D72542",
"q 	c #DE273F",
"r 	c #C71E47",
"s 	c #C91E46",
"t 	c #C61D47",
"u 	c #C51D48",
"v 	c #C31C48",
"w 	c #C71D47",
"x 	c #C21B49",
"y 	c #C41C48",
"z 	c #C11B49",
"A 	c #D52342",
"B 	c #C01A49",
"C 	c #D8758B",
"D 	c #E29EAD",
"E 	c #DE8B9C",
"F 	c #DE8A9B",
"G 	c #E4A0AD",
"H 	c #DC778A",
"I 	c #BE1A4A",
"J 	c #C01B49",
"K 	c #C1516C",
"L 	c #C46C80",
"M 	c #C46075",
"N 	c #C66E80",
"O 	c #C7546A",
"P 	c #93143A",
"Q 	c #99153B",
"R 	c #9A163A",
"S 	c #9B163A",
"T 	c #9D163A",
"U 	c #9E173A",
"V 	c #9F1839",
"W 	c #A11838",
"X 	c #A21938",
"Y 	c #A31A37",
"Z 	c #A51A37",
"` 	c #A61A36",
" .	c #A71B36",
"..	c #A91C36",
"+.	c #AA1C36",
"@.	c #AB1D35",
"#.	c #AD1E34",
"$.	c #A91D32",
"                                        ",
"                                        ",
"                                        ",
"  . + @ # $ % & * = - ; > , ' ) ! ~ {   ",
"  ] ^ / ( _ : < [ } | 1 2 3 4 5 6 7 8   ",
"  9 0 a b ( _ c < [ d | 1 e f 4 g 6 h   ",
"  i 9 0 / j k : c l [ d m 1 e n 4 g 7   ",
"  o i ] 0 / ( k : < p } | m q e n 5 g   ",
"  r s i ] ^ / ( _ : < [ } | 1 2 3 4 5   ",
"  t o s 9 0 a b ( _ c < [ d | 1 e f 4   ",
"  u t o i 9 0 / j k : c l [ d m 1 e n   ",
"  v u w o i ] 0 / ( k : < p } | m q e   ",
"  x y u r s i ] ^ / ( _ : < [ } | 1 2   ",
"  z v y t o s 9 ] a b ( _ A < [ d | 1   ",
"  B z v u t o C D E F G H _ c l [ d m   ",
"  I J x v u w K L M M N O k : < p } d   ",
"  P Q R S T U V W X Y Z `  ...+.@.#.$.  ",
"                                        ",
"                                        ",
"                                        "};
