/* XPM */
static char * desktop_xpm[] = {
"20 20 84 1",
" 	c None",
".	c #A1234D",
"+	c #A2204B",
"@	c #A3204B",
"#	c #A4214C",
"$	c #A5214C",
"%	c #A7214D",
"&	c #A8214D",
"*	c #A9214E",
"=	c #AB224F",
"-	c #AC224F",
";	c #AD2250",
">	c #AE2250",
",	c #B02251",
"'	c #B12251",
")	c #B22352",
"!	c #B32352",
"~	c #B42353",
"{	c #B72655",
"]	c #9A1340",
"^	c #9C1341",
"/	c #9D1341",
"(	c #9E1442",
"_	c #A01442",
":	c #A11443",
"<	c #A21443",
"[	c #A31444",
"}	c #A51444",
"|	c #A61545",
"1	c #A71545",
"2	c #A91546",
"3	c #AA1546",
"4	c #AB1547",
"5	c #AC1547",
"6	c #AE1648",
"7	c #AF1648",
"8	c #B01649",
"9	c #991340",
"0	c #9B1340",
"a	c #9F1442",
"b	c #A41444",
"c	c #A81545",
"d	c #AD1547",
"e	c #99133F",
"f	c #9E1341",
"g	c #A31443",
"h	c #AD1648",
"i	c #98133F",
"j	c #A81546",
"k	c #97133F",
"l	c #96123E",
"m	c #95123E",
"n	c #94123D",
"o	c #97123E",
"p	c #93123D",
"q	c #94123E",
"r	c #BC6E88",
"s	c #CE99AB",
"t	c #C6849A",
"u	c #C68399",
"v	c #D09AAC",
"w	c #BF6F89",
"x	c #A14A67",
"y	c #AB667D",
"z	c #A75872",
"A	c #A85873",
"B	c #AD677E",
"C	c #A64A68",
"D	c #720D2F",
"E	c #760E31",
"F	c #760E32",
"G	c #780E32",
"H	c #790F32",
"I	c #7A0F32",
"J	c #7B0F33",
"K	c #7C0F33",
"L	c #7D0F34",
"M	c #7E0F34",
"N	c #7F1035",
"O	c #801035",
"P	c #811036",
"Q	c #821036",
"R	c #831036",
"S	c #810F35",
"                    ",
"                    ",
"                    ",
" .+@#$%&*=-;>,')!~{ ",
" ]^/(_:<[}|12345678 ",
" 90^/a_:<b}|c234d67 ",
" e]0^fa_<gb}1c245h6 ",
" ie]0/fa:<[b|1j345h ",
" ki90^/(_:<b}|1234d ",
" lki]0^/a_:gb}|c235 ",
" mlke]0/fa_<gb|1j24 ",
" nmoie]^/(a:<[}|1j3 ",
" pqlki90^/a_:<b}|c2 ",
" ppmlke]0^fa_<gb}1c ",
" ppnmlirstuvw:<[b|1 ",
" pppnmoxyzABC_:<b}| ",
" DEEEFGHIJKLMNOPQRS ",
"                    ",
"                    ",
"                    "};
