/* XPM */
static char * desktop_xpm[] = {
"20 20 164 2",
"  	c None",
". 	c #5577E2",
"+ 	c #5673E0",
"@ 	c #5972DE",
"# 	c #5B70DB",
"$ 	c #5E6ED9",
"% 	c #616DD7",
"& 	c #646BD4",
"* 	c #6769D3",
"= 	c #6A67D0",
"- 	c #6D65CE",
"; 	c #6F63CC",
"> 	c #7261C9",
", 	c #755FC7",
"' 	c #785DC4",
") 	c #7B5BC3",
"! 	c #7E5AC1",
"~ 	c #8058BE",
"{ 	c #8558BD",
"] 	c #466FE2",
"^ 	c #496DE0",
"/ 	c #4C6BDD",
"( 	c #4F69DB",
"_ 	c #5267D9",
": 	c #5565D6",
"< 	c #5863D4",
"[ 	c #5C61D1",
"} 	c #5F5FCF",
"| 	c #625DCD",
"1 	c #655BCA",
"2 	c #6859C8",
"3 	c #6B58C6",
"4 	c #6E56C3",
"5 	c #7154C1",
"6 	c #7452BE",
"7 	c #7750BC",
"8 	c #7A4EBA",
"9 	c #4470E4",
"0 	c #476EE2",
"a 	c #4A6CDF",
"b 	c #4D6ADD",
"c 	c #5068DA",
"d 	c #5366D8",
"e 	c #5665D6",
"f 	c #5963D3",
"g 	c #5F5FCE",
"h 	c #625DCC",
"i 	c #6859C7",
"j 	c #6B57C5",
"k 	c #6E55C2",
"l 	c #7153C0",
"m 	c #7451BE",
"n 	c #774FBB",
"o 	c #4272E6",
"p 	c #4570E3",
"q 	c #486EE1",
"r 	c #4B6CDE",
"s 	c #4E6ADC",
"t 	c #5168DA",
"u 	c #5466D7",
"v 	c #5764D5",
"w 	c #5A62D3",
"x 	c #5D60D0",
"y 	c #605ECE",
"z 	c #635CCB",
"A 	c #665AC9",
"B 	c #6958C7",
"C 	c #6C56C4",
"D 	c #6F54C2",
"E 	c #7253BF",
"F 	c #7551BD",
"G 	c #4073E7",
"H 	c #4371E5",
"I 	c #466FE3",
"J 	c #4C6BDE",
"K 	c #5565D7",
"L 	c #5B62D2",
"M 	c #5E60CF",
"N 	c #615ECD",
"O 	c #645CCB",
"P 	c #675AC8",
"Q 	c #6A58C6",
"R 	c #6D56C3",
"S 	c #7054C1",
"T 	c #7352BF",
"U 	c #3E74E9",
"V 	c #4172E7",
"W 	c #476FE2",
"X 	c #4A6DDF",
"Y 	c #4D6BDD",
"Z 	c #5069DB",
"` 	c #5367D8",
" .	c #5963D4",
"..	c #6E55C3",
"+.	c #3C76EB",
"@.	c #3F74E8",
"#.	c #4570E4",
"$.	c #4B6CDF",
"%.	c #5466D8",
"&.	c #635DCC",
"*.	c #665BC9",
"=.	c #6959C7",
"-.	c #6C57C5",
";.	c #6F55C2",
">.	c #3977EC",
",.	c #3C75EA",
"'.	c #3F73E8",
").	c #4271E5",
"!.	c #456FE3",
"~.	c #486DE1",
"{.	c #4C6CDE",
"].	c #4F6ADC",
"^.	c #5268D9",
"/.	c #5566D7",
"(.	c #5864D5",
"_.	c #5E60D0",
":.	c #675AC9",
"<.	c #6D56C4",
"[.	c #3779EE",
"}.	c #3A77EC",
"|.	c #3D75E9",
"1.	c #5B61D2",
"2.	c #5E5FCF",
"3.	c #615DCD",
"4.	c #645BCA",
"5.	c #357AF0",
"6.	c #3878EE",
"7.	c #3B76EB",
"8.	c #4172E6",
"9.	c #3679EF",
"0.	c #3977ED",
"a.	c #3C76EA",
"b.	c #3779EF",
"c.	c #3D75EA",
"d.	c #8AA4E7",
"e.	c #ADBEEB",
"f.	c #9EAFE7",
"g.	c #9FAEE5",
"h.	c #B1BCE8",
"i.	c #929EE0",
"j.	c #5864D4",
"k.	c #3B76EC",
"l.	c #6888D6",
"m.	c #7F96D1",
"n.	c #768ED1",
"o.	c #788DD0",
"p.	c #8494CE",
"q.	c #7282CE",
"r.	c #2960BB",
"s.	c #2A62C0",
"t.	c #2D60BE",
"u.	c #305EBC",
"v.	c #325DBA",
"w.	c #355BB8",
"x.	c #375AB6",
"y.	c #3A58B4",
"z.	c #3C56B2",
"A.	c #3E55B0",
"B.	c #4153AE",
"C.	c #4352AD",
"D.	c #4650AA",
"E.	c #484EA9",
"F.	c #4A4DA7",
"G.	c #4B4AA0",
"                                        ",
"                                        ",
"                                        ",
"  . + @ # $ % & * = - ; > , ' ) ! ~ {   ",
"  ] ^ / ( _ : < [ } | 1 2 3 4 5 6 7 8   ",
"  9 0 a b c d e f [ g h 1 i j k l m n   ",
"  o p q r s t u v w x y z A B C D E F   ",
"  G H I ^ J ( _ K < L M N O P Q R S T   ",
"  U V 9 W X Y Z ` e  .[ } h 1 2 j ..l   ",
"  +.@.o #.q $.s t %.v w x y &.*.=.-.;.  ",
"  >.,.'.).!.~.{.].^./.(.L _.N O :.Q <.  ",
"  [.}.|.G H ] ^ / ( _ : < 1.2.3.4.P 3   ",
"  5.6.7.U 8.9 0 a b c ` e f [ g h 1 i   ",
"  5.9.0.a.@.o p q $.s t u v w x y z A   ",
"  5.5.b.}.c.G d.e.f.g.h.i.K j.L M N O   ",
"  5.5.5.6.k.U l.m.n.o.p.q.` e  .[ } h   ",
"  r.s.s.s.t.u.v.w.x.y.z.A.B.C.D.E.F.G.  ",
"                                        ",
"                                        ",
"                                        "};
