/* XPM */
static char * closeI_xpm[] = {
"26 58 24 1",
" 	c None",
".	c #23252E",
"+	c #2B2D38",
"@	c #3B404F",
"#	c #474C5E",
"$	c #4D5266",
"%	c #3B3F4F",
"&	c #2A2D38",
"*	c #242630",
"=	c #3C4050",
"-	c #4D5367",
";	c #4E5468",
">	c #4D5368",
",	c #3C414F",
"'	c #24262F",
")	c #434859",
"!	c #3C4151",
"~	c #3C404F",
"{	c #3B3F4E",
"]	c #474C5F",
"^	c #4C5265",
"/	c #4C5165",
"(	c #2A2D37",
"_	c #424858",
"..........................",
"..........................",
"..........................",
"..........................",
"..........................",
"..........................",
"..........................",
".........+@#$$#%&.........",
".......*=-;;;;;;>,'.......",
"......*);;;;;;;;;;)'......",
"......!;;;;;;;;;;;;~......",
".....+-;;;;;;;;;;;;>&.....",
".....@;;;;;;;;;;;;;;{.....",
".....];;;;;;;;;;;;;;#.....",
".....^;;;;;;;;;;;;;;^.....",
".....^;;;;;;;;;;;;;;/.....",
".....];;;;;;;;;;;;;;#.....",
".....%;;;;;;;;;;;;;;%.....",
".....&>;;;;;;;;;;;;>(.....",
"......,;;;;;;;;;;;;@......",
"......');;;;;;;;;;_'......",
".......'~>;;;;;;>@'.......",
".........&{#^^#%(.........",
"..........................",
"..........................",
"..........................",
"..........................",
"..........................",
"..........................",
"..........................",
"..........................",
"..........................",
"..........................",
"..........................",
"..........................",
"..........................",
".........+@#$$#%&.........",
".......*=-;;;;;;>,'.......",
"......*);;;;;;;;;;)'......",
"......!;;;;;;;;;;;;~......",
".....+-;;;;;;;;;;;;>&.....",
".....@;;;;;;;;;;;;;;{.....",
".....];;;;;;;;;;;;;;#.....",
".....^;;;;;;;;;;;;;;^.....",
".....^;;;;;;;;;;;;;;/.....",
".....];;;;;;;;;;;;;;#.....",
".....%;;;;;;;;;;;;;;%.....",
".....&>;;;;;;;;;;;;>(.....",
"......,;;;;;;;;;;;;@......",
"......');;;;;;;;;;_'......",
".......'~>;;;;;;>@'.......",
".........&{#^^#%(.........",
"..........................",
"..........................",
"..........................",
"..........................",
"..........................",
".........................."};
