/* XPM */
static char * start_xpm[] = {
"41 22 2 1",
" 	c #FFFFFF",
".	c #4D72BF",
"                                         ",
"                                         ",
"           ........    ........          ",
"           ........    ........          ",
"           ........    ........          ",
"           ........    ........          ",
"           ........    ........          ",
"           ........    ........          ",
"           ........    ........          ",
"           ........    ........          ",
"                                         ",
"                                         ",
"                                         ",
"           ........    ........          ",
"           ........    ........          ",
"           ........    ........          ",
"           ........    ........          ",
"           ........    ........          ",
"           ........    ........          ",
"           ........    ........          ",
"           ........    ........          ",
"                                         "};
