/* XPM */
static char * taskbuttonactive_xpm[] = {
"1 27 2 1",
" 	c #FFFFFF",
".	c #6F3AA2",
" ",
" ",
" ",
" ",
" ",
" ",
" ",
" ",
" ",
" ",
" ",
" ",
" ",
" ",
" ",
" ",
" ",
" ",
" ",
" ",
" ",
" ",
" ",
" ",
" ",
".",
"."};
