/* XPM */
static char * move_xpm[] = {
"23 23 4 1",
" 	c None",
".	c #737F91",
"+	c #0F1013",
"@	c #1B1F26",
"          ..           ",
"          ..+          ",
"         .++.          ",
"         .++.+         ",
"        .++++.         ",
"        .++++.+        ",
"       .++++++.        ",
"      ....++....       ",
"    ..+.@.++.@.+..     ",
"  ..+++...++...+++..   ",
"..++++++++++++++++++.. ",
"..++++++++++++++++++..+",
" +...++...++...+++..+++",
"   +..+.@.++.@.+..+++  ",
"     +....++....+++    ",
"       .++++++.++      ",
"        .++++.++       ",
"        .++++.+        ",
"         .++.++        ",
"         .++.+         ",
"          ..++         ",
"          ..+          ",
"           ++          "};
