/* XPM */
static char * right_xpm[] = {
"16 16 4 1",
" 	c None",
".	c #737F91",
"+	c #0F1013",
"@	c #1B1F26",
"            ... ",
"          ..++.+",
"        ..++++.+",
"      ..+++++.++",
"    ..+++++++.+ ",
"  ..++++++++.++ ",
" ..+++++++++.+  ",
"  @..++++++.++  ",
"    .++++++.+   ",
"   .++++++.++   ",
"  .+++..++.+    ",
" .+++.+.+.++    ",
".+++.++ ..+     ",
".++.++  .++     ",
" ..++    +      ",
"  ++            "};
