/* XPM */
static char * sizeT_xpm[] = {
"21 16 3 1",
" 	c None",
".	c #737F91",
"+	c #0F1013",
".................... ",
".++++++++++++++++++.+",
".++++++++..++++++++.+",
"...........+........+",
" +++++++.++.+++++++++",
"        .++.+        ",
"       .++++.        ",
"       .++++.+       ",
"      .++++++.       ",
"      .++++++.+      ",
"     .+..++..+.      ",
"     ..+.++.+..+     ",
"      ++.++.+ ++     ",
"        .++.+        ",
"         ..++        ",
"          ++         "};
