/* XPM */
static char * sizeR_xpm[] = {
"16 21 4 1",
" 	c None",
".	c #737F91",
"+	c #0B0B0C",
"@	c #0F1013",
"           .... ",
"           .++.@",
"           .++.@",
"           .++.@",
"           .++.@",
"   ..      .++.@",
"   .@..    .++.@",
"    .++..  .++.@",
" ....++++...++.@",
".++++++++++..+.@",
".++++++++++..+.@",
" ....++++..+++.@",
"  @@.++..+++++.@",
"   .@..+++ .++.@",
"   ..+++   .++.@",
"    ++     .++.@",
"           .++.@",
"           .++.@",
"           .++.@",
"           ....@",
"            @@@@"};
