/* XPM */
static char * sizeL_xpm[] = {
"16 21 3 1",
" 	c None",
".	c #737F91",
"+	c #0F1013",
"....            ",
".++.+           ",
".++.+           ",
".++.+           ",
".++.+           ",
".++.+     ..    ",
".++.+   ..+.+   ",
".++.+ ..++.++   ",
".++...++++....  ",
".+..++++++++++. ",
".+...+++++++++.+",
".+++..++++....++",
".++.++..++.++++ ",
".++.+  +..+.    ",
".++.+    +..+   ",
".++.+      ++   ",
".++.+           ",
".++.+           ",
".++.+           ",
"....+           ",
" ++++           "};
