/* XPM */
static char * icewm_xpm[] = {
"32 20 121 2",
"  	c None",
". 	c #3B3B3B",
"+ 	c #323232",
"@ 	c #3D3D3D",
"# 	c #282828",
"$ 	c #121212",
"% 	c #000000",
"& 	c #202020",
"* 	c #070707",
"= 	c #0C0C0C",
"- 	c #1D1D1D",
"; 	c #2F2F2F",
"> 	c #BFBFBF",
", 	c #C9C9CA",
"' 	c #DFDFDF",
") 	c #5D5F63",
"! 	c #706C56",
"~ 	c #BDB076",
"{ 	c #ACA37C",
"] 	c #606162",
"^ 	c #545557",
"/ 	c #695B3C",
"( 	c #F7E076",
"_ 	c #F6DD67",
": 	c #F6DD6B",
"< 	c #EED97A",
"[ 	c #4D3F26",
"} 	c #010305",
"| 	c #876F4F",
"1 	c #F4BF5F",
"2 	c #F9C74E",
"3 	c #FAC452",
"4 	c #F4C491",
"5 	c #6A655B",
"6 	c #6C7073",
"7 	c #F9F1E7",
"8 	c #FFE8DE",
"9 	c #FEEEE1",
"0 	c #FFFFFE",
"a 	c #B2B3B3",
"b 	c #151515",
"c 	c #181818",
"d 	c #FFFFFF",
"e 	c #E8E8E8",
"f 	c #3A3A3A",
"g 	c #030303",
"h 	c #272727",
"i 	c #2E2E2E",
"j 	c #747474",
"k 	c #F9F9F9",
"l 	c #7D7D7D",
"m 	c #101010",
"n 	c #B3B3B3",
"o 	c #F6F6F6",
"p 	c #141414",
"q 	c #020202",
"r 	c #585858",
"s 	c #8D8D8D",
"t 	c #949494",
"u 	c #0B0B0B",
"v 	c #B6B6B7",
"w 	c #A4A4A6",
"x 	c #EAD577",
"y 	c #88805E",
"z 	c #F1F1F2",
"A 	c #FEF6D2",
"B 	c #AA9E68",
"C 	c #867B45",
"D 	c #F9E485",
"E 	c #F6DD6F",
"F 	c #F9DF66",
"G 	c #ECD469",
"H 	c #53514A",
"I 	c #D0D0D1",
"J 	c #E9D68A",
"K 	c #E9D165",
"L 	c #978C59",
"M 	c #CAB865",
"N 	c #FAE172",
"O 	c #EDD264",
"P 	c #F7DD67",
"Q 	c #D4C062",
"R 	c #D8C579",
"S 	c #F9DF67",
"T 	c #F7DE6B",
"U 	c #F8E385",
"V 	c #EBD464",
"W 	c #F7DE67",
"X 	c #F4DA66",
"Y 	c #BAAE82",
"Z 	c #E5E5E5",
"` 	c #888B93",
" .	c #E0C85F",
"..	c #F8DE67",
"+.	c #F8DC66",
"@.	c #F8D166",
"#.	c #F2C05A",
"$.	c #FAD362",
"%.	c #F7DF68",
"&.	c #F8DD67",
"*.	c #F5DD6A",
"=.	c #818180",
"-.	c #888889",
";.	c #7E7E7E",
">.	c #3C3C3C",
",.	c #EFD664",
"'.	c #F7DE68",
").	c #F8D966",
"!.	c #F0B655",
"~.	c #D79C4A",
"{.	c #F4AC4F",
"].	c #F9B956",
"^.	c #F7D061",
"/.	c #F7DC67",
"(.	c #FBCA5E",
"_.	c #1E160E",
":.	c #000001",
"<.	c #F1CD5F",
"[.	c #F7DC66",
"}.	c #F8CF60",
"|.	c #ECA94F",
"                              . + @                             ",
"                          # $ % % % &                           ",
"                          * % = % % * -                         ",
"                          ; > % , ' % *                         ",
"                          ) ! ~ { ] ^ %                         ",
"                          / ( _ : < [ }                         ",
"                          | 1 2 3 4 5 %                         ",
"                          6 7 8 9 0 a % b                       ",
"                        c ' d d d d e f g h                     ",
"                      i j k d d d d d l % m                     ",
"                      % n d d d d d d o % % p                   ",
"                    $ q d d d d d d d d r % %                   ",
"                    % s d d d d d d d d t % % u                 ",
"                    % v d d d d d d d d w % % %                 ",
"                    x y z d d d d d d A B % % C                 ",
"                D E F G H I d d d d d J K L M N                 ",
"              O P P P P Q % d d d d d R S P P T U               ",
"              V W P P P X Y d d d Z `  ...P P +.@.              ",
"              #.$.%.%.W &.*.=.-.;.>.% ,.P '.).!.                ",
"                ~.{.].^./.(._.% q :.% <.[.}.|.                  "};
