/* XPM */
static char * maximizeA_xpm[] = {
"26 58 29 1",
" 	c None",
".	c #23252E",
"+	c #263450",
"@	c #2E569C",
"#	c #346DD0",
"$	c #3779E9",
"%	c #232733",
"&	c #2F57A0",
"*	c #377BEF",
"=	c #377CF1",
"-	c #367BEF",
";	c #2F579E",
">	c #3266BF",
",	c #3265BE",
"'	c #2E579E",
")	c #26344F",
"!	c #2E579D",
"~	c #2F559A",
"{	c #346ED1",
"]	c #346DCF",
"^	c #3678E8",
"/	c #3678E7",
"(	c #3677E7",
"_	c #2E569A",
":	c #26334E",
"<	c #3165BD",
"[	c #232632",
"}	c #FFFFFF",
"|	c #FEFEFF",
"..........................",
"..........................",
"..........................",
"..........................",
"..........................",
"..........................",
"..........................",
".........+@#$$#@+.........",
".......%&*======-;%.......",
"......%>==========,%......",
"......&============'......",
".....+-============-).....",
".....!==============~.....",
".....{==============].....",
".....^==============/.....",
"...../==============(.....",
".....{==============].....",
".....@==============_.....",
".....+-============-:.....",
"......;============!......",
"......%,==========<[......",
".......%'-======-![.......",
".........)~]^^]_:.........",
"..........................",
"..........................",
"..........................",
"..........................",
"..........................",
"..........................",
"..........................",
"..........................",
"..........................",
"..........................",
"..........................",
"..........................",
"..........................",
".........+@#$$#@+.........",
".......%&*======-;%.......",
"......%>==========,%......",
"......&============'......",
".....+-==}}}}}}}}==-).....",
".....!===}}}}}}}}===~.....",
".....{===}}====|}===].....",
".....^===}}====|}===/.....",
"...../===}}====|}===(.....",
".....{===}}====|}===].....",
".....@===}}}}}}}}===_.....",
".....+-==}}}}}}}}==-:.....",
"......;============!......",
"......%,==========<[......",
".......%'-======-![.......",
".........)~]^^]_:.........",
"..........................",
"..........................",
"..........................",
"..........................",
"..........................",
".........................."};
