/* XPM */
static char * collapse_xpm[] = {
"10 20 3 1",
" 	c None",
".	c #23252E",
"+	c #CD0245",
"  ......  ",
"  .++++.  ",
" .++++++. ",
" .++++++. ",
" .++++++. ",
" .++++++. ",
" .++++++. ",
" .++++++. ",
" .++++++. ",
" .++++++. ",
" .++++++. ",
" .++++++. ",
" .++++++. ",
" .++++++. ",
" .++++++. ",
" .++++++. ",
" .++++++. ",
"  .++++.  ",
"  ......  ",
"  ......  "};
