/* XPM */
static char * minimizeO_xpm[] = {
"26 58 18 1",
" 	c #1F1F1F",
".	c #202020",
"+	c #494E52",
"@	c #4C5055",
"#	c #4C5155",
"$	c #1F2020",
"%	c #4B4F54",
"&	c #656A71",
"*	c #7A7E88",
"=	c #80848E",
"-	c #7E828B",
";	c #F5F6F7",
">	c #45617F",
",	c #5B8ABC",
"'	c #669FD9",
")	c #6CA8E6",
"!	c #6DAAE9",
"~	c #6195CB",
"                          ",
"                          ",
"                          ",
"                          ",
"                          ",
"                          ",
"         .+@##@+.         ",
"       $%&*====*&%$       ",
"      .#*========*#.      ",
"     $#-==========-#$     ",
"     %*============*%     ",
"    .&==============&.    ",
"    +*==============*+    ",
"    @================@    ",
"    #=====;;;;;;=====#    ",
"    #=====;;;;;;=====#    ",
"    @================@    ",
"    +*==============*+    ",
"    .&==============&.    ",
"     %*============*%     ",
"     $#-==========-#$     ",
"      .#*========*#.      ",
"       $%&*====*&%$       ",
"         .+@##@+.         ",
"                          ",
"                          ",
"                          ",
"                          ",
"                          ",
"                          ",
"                          ",
"                          ",
"                          ",
"                          ",
"                          ",
"                          ",
"         >,'))',>         ",
"        ,!!!!!!!!,        ",
"       ~!!!!!!!!!!~       ",
"      ,!!!!!!!!!!!!,      ",
"     >!!!!!!!!!!!!!!>     ",
"     ,!!!!!!!!!!!!!!,     ",
"     '!!!!!!!!!!!!!!'     ",
"     )!!!!;;;;;;!!!!)     ",
"     )!!!!;;;;;;!!!!)     ",
"     '!!!!!!!!!!!!!!'     ",
"     ,!!!!!!!!!!!!!!,     ",
"     >!!!!!!!!!!!!!!>     ",
"      ,!!!!!!!!!!!!,      ",
"       ~!!!!!!!!!!~       ",
"        ,!!!!!!!!,        ",
"         >,'))',>         ",
"                          ",
"                          ",
"                          ",
"                          ",
"                          ",
"                          "};
