/* XPM */
static char * minimizeA_xpm[] = {
"26 58 8 1",
" 	c #1F1F1F",
".	c #1F2020",
"+	c #202020",
"@	c #2C3032",
"#	c #323538",
"$	c #1F1F20",
"%	c #212222",
"&	c #90949E",
"                          ",
"                          ",
"                          ",
"                          ",
"                          ",
"                          ",
"                          ",
"         .+@##@+.         ",
"        +@+$  $+@+        ",
"       %+        +%       ",
"      ++          ++      ",
"     .@            @.     ",
"     ++            ++     ",
"     @$            $@     ",
"     #    &&&&&&    #     ",
"     #    &&&&&&    #     ",
"     @$            $@     ",
"     ++            ++     ",
"     .@            @.     ",
"      ++          ++      ",
"       %+        +%       ",
"        +@+$  $+@+        ",
"         .+@##@+.         ",
"                          ",
"                          ",
"                          ",
"                          ",
"                          ",
"                          ",
"                          ",
"                          ",
"                          ",
"                          ",
"                          ",
"                          ",
"                          ",
"         .+@##@+.         ",
"        +@+$  $+@+        ",
"       %+        +%       ",
"      ++          ++      ",
"     .@            @.     ",
"     ++            ++     ",
"     @$            $@     ",
"     #              #     ",
"     #    &&&&&&    #     ",
"     @$   &&&&&&   $@     ",
"     ++            ++     ",
"     .@            @.     ",
"      ++          ++      ",
"       %+        +%       ",
"        +@+$  $+@+        ",
"         .+@##@+.         ",
"                          ",
"                          ",
"                          ",
"                          ",
"                          ",
"                          "};
