/* XPM */
static char * restoreI_xpm[] = {
"26 58 9 1",
" 	c #1F1F1F",
".	c #1F2020",
"+	c #41464A",
"@	c #4A4F53",
"#	c #4B4F54",
"$	c #373B3E",
"%	c #494E52",
"&	c #464B4F",
"*	c #767A82",
"                          ",
"                          ",
"                          ",
"                          ",
"                          ",
"                          ",
"                          ",
"         .+@##@+.         ",
"        +#$.  .$#+        ",
"       %&        &%       ",
"      +&          &+      ",
"     .#      *     #.     ",
"     +$      **    $+     ",
"     @.      ***   .@     ",
"     #       ****   #     ",
"     #   ****       #     ",
"     @.   ***      .@     ",
"     +$    **      $+     ",
"     .#     *      #.     ",
"      +&          &+      ",
"       %&        &%       ",
"        +#$.  .$#+        ",
"         .+@##@+.         ",
"                          ",
"                          ",
"                          ",
"                          ",
"                          ",
"                          ",
"                          ",
"                          ",
"                          ",
"                          ",
"                          ",
"                          ",
"                          ",
"         .+@##@+.         ",
"        +#$.  .$#+        ",
"       %&        &%       ",
"      +&          &+      ",
"     .#      *     #.     ",
"     +$      **    $+     ",
"     @.      ***   .@     ",
"     #       ****   #     ",
"     #   ****       #     ",
"     @.   ***      .@     ",
"     +$    **      $+     ",
"     .#     *      #.     ",
"      +&          &+      ",
"       %&        &%       ",
"        +#$.  .$#+        ",
"         .+@##@+.         ",
"                          ",
"                          ",
"                          ",
"                          ",
"                          ",
"                          "};
