/* XPM */
static char * restoreA_xpm[] = {
"26 58 6 1",
" 	c #1F1F1F",
".	c #1F2020",
"+	c #202020",
"@	c #202021",
"#	c #1F1F20",
"$	c #90949E",
"                          ",
"                          ",
"                          ",
"                          ",
"                          ",
"                          ",
"                          ",
"         .+@@@@+.         ",
"        +@+#  #+@+        ",
"       @+        +@       ",
"      ++          ++      ",
"     .@      $     @.     ",
"     ++      $$    ++     ",
"     @#      $$$   #@     ",
"     @       $$$$   @     ",
"     @   $$$$       @     ",
"     @#   $$$      #@     ",
"     ++    $$      ++     ",
"     .@     $      @.     ",
"      ++          ++      ",
"       @+        +@       ",
"        +@+#  #+@+        ",
"         .+@@@@+.         ",
"                          ",
"                          ",
"                          ",
"                          ",
"                          ",
"                          ",
"                          ",
"                          ",
"                          ",
"                          ",
"                          ",
"                          ",
"                          ",
"         .+@@@@+.         ",
"        +@+#  #+@+        ",
"       @+        +@       ",
"      ++          ++      ",
"     .@      $     @.     ",
"     ++      $$    ++     ",
"     @#      $$$   #@     ",
"     @       $$$$   @     ",
"     @   $$$$       @     ",
"     @#   $$$      #@     ",
"     ++    $$      ++     ",
"     .@     $      @.     ",
"      ++          ++      ",
"       @+        +@       ",
"        +@+#  #+@+        ",
"         .+@@@@+.         ",
"                          ",
"                          ",
"                          ",
"                          ",
"                          ",
"                          "};
