/* XPM */
static char * closeO_xpm[] = {
"26 58 80 1",
" 	c None",
".	c #23252E",
"+	c #42222A",
"@	c #861E22",
"#	c #B51B1D",
"$	c #CC1A1A",
"%	c #41232A",
"&	c #28252E",
"*	c #8A1E22",
"=	c #D11919",
"-	c #D31919",
";	c #D1191A",
">	c #891F22",
",	c #27252E",
"'	c #A51D1F",
")	c #891E21",
"!	c #FDF7F7",
"~	c #F7D3D3",
"{	c #D83131",
"]	c #D62929",
"^	c #F4C6C6",
"/	c #FFFFFF",
"(	c #D42020",
"_	c #871E22",
":	c #F5CCCC",
"<	c #F9DFDF",
"[	c #D62B2B",
"}	c #F7D4D4",
"|	c #D31A1A",
"1	c #851E22",
"2	c #B61B1D",
"3	c #D72C2C",
"4	c #F7D6D6",
"5	c #FAE3E3",
"6	c #D93636",
"7	c #CB1A1A",
"8	c #FAE4E4",
"9	c #D93838",
"0	c #CA1A1A",
"a	c #C91A1B",
"b	c #D72E2E",
"c	c #F8D8D8",
"d	c #F8DBDB",
"e	c #F9E2E2",
"f	c #D83535",
"g	c #F6CFCF",
"h	c #D73030",
"i	c #F9DEDE",
"j	c #841F23",
"k	c #F6D1D1",
"l	c #F5C9C9",
"m	c #40232A",
"n	c #881E22",
"o	c #A41C1E",
"p	c #A31C1E",
"q	c #26242D",
"r	c #D11A1A",
"s	c #851F23",
"t	c #B41C1D",
"u	c #A51C1E",
"v	c #E98C8C",
"w	c #E47171",
"x	c #D52323",
"y	c #D52222",
"z	c #E47070",
"A	c #E57979",
"B	c #E57878",
"C	c #E57777",
"D	c #E67A7A",
"E	c #D52626",
"F	c #E67C7C",
"G	c #E67E7E",
"H	c #D62727",
"I	c #D52424",
"J	c #E57A7A",
"K	c #E67F7F",
"L	c #D62828",
"M	c #E67B7B",
"N	c #D52525",
"O	c #E57676",
"..........................",
"..........................",
"..........................",
"..........................",
"..........................",
"..........................",
"..........................",
".........+@#$$#@%.........",
".......&*=------;>,.......",
"......,'----------',......",
"......*------------)......",
".....+;--!~{--]^/(-;%.....",
"....._---:/<{[}/<|--1.....",
".....2---34/<4/56---#.....",
".....7----34//89----7.....",
".....0----34//89----a.....",
".....2---bc/d~/ef---#.....",
".....1---g/dh]~/i|--j.....",
".....%;--!kh--]l/(-;m.....",
"......n------------@......",
"......,o----------pq......",
".......,_;------r@q.......",
".........ms#0atjm.........",
"..........................",
"..........................",
"..........................",
"..........................",
"..........................",
"..........................",
"..........................",
"..........................",
"..........................",
"..........................",
"..........................",
"..........................",
"..........................",
".........%@#$$#@%.........",
".......,*=------;),.......",
"......,'----------u,......",
"......*------------n......",
".....%;--vwx--yzv--;%.....",
"....._---AvBxyCvD---1.....",
".....2---EFvBBvGH---#.....",
".....7----IJvvKL----0.....",
".....0----xBvvMN----a.....",
".....2---IAvDDvDI---#.....",
".....@---OvDNIDvC---s.....",
".....%;--vCN--ICv--;m.....",
"......)------------_......",
"......,u----------oq......",
".......,n;------;_q.......",
".........%1#77#sm.........",
"..........................",
"..........................",
"..........................",
"..........................",
"..........................",
".........................."};
