/* XPM */
static char * minimizeO_xpm[] = {
"26 58 29 1",
" 	c None",
".	c #23252E",
"+	c #493526",
"@	c #9E5714",
"#	c #D86E08",
"$	c #F47A02",
"%	c #28272D",
"&	c #A35813",
"*	c #FB7C00",
"=	c #FD7D00",
"-	c #FA7C01",
";	c #A15813",
">	c #C5670C",
",	c #C4660C",
"'	c #A05814",
")	c #483426",
"!	c #9F5714",
"~	c #9D5614",
"{	c #D96E08",
"]	c #D76D08",
"^	c #F37902",
"/	c #F27902",
"(	c #F17803",
"_	c #FFFFFF",
":	c #9C5615",
"<	c #473426",
"[	c #C3660C",
"}	c #27262D",
"|	c #FEBE80",
"..........................",
"..........................",
"..........................",
"..........................",
"..........................",
"..........................",
"..........................",
".........+@#$$#@+.........",
".......%&*======-;%.......",
"......%>==========,%......",
"......&============'......",
".....+-============-).....",
".....!==============~.....",
".....{==============].....",
".....^==============/.....",
"...../==============(.....",
".....{==============].....",
".....@===________===:.....",
".....+-==________==-<.....",
"......;============!......",
"......%,==========[}......",
".......%'-======-!}.......",
".........)~]^^]:<.........",
"..........................",
"..........................",
"..........................",
"..........................",
"..........................",
"..........................",
"..........................",
"..........................",
"..........................",
"..........................",
"..........................",
"..........................",
"..........................",
".........+@#$$#@+.........",
".......%&*======-;%.......",
"......%>==========,%......",
"......&============'......",
".....+-============-).....",
".....!==============~.....",
".....{==============].....",
".....^==============/.....",
"...../==============(.....",
".....{==============].....",
".....@===||||||||===:.....",
".....+-==||||||||==-<.....",
"......;============!......",
"......%,==========[}......",
".......%'-======-!}.......",
".........)~]^^]:<.........",
"..........................",
"..........................",
"..........................",
"..........................",
"..........................",
".........................."};
