/* XPM */
static char * applications_multimedia_xpm[] = {
"128 104 6 1",
" 	c None",
".	c #863EA7",
"+	c #673080",
"@	c #FFFFFF",
"#	c #FF5722",
"$	c #FF9800",
"        ................................................................................................................        ",
"        ................................................................................................................        ",
"        ................................................................................................................        ",
"        ................................................................................................................        ",
"        ................................................................................................................        ",
"        ................................................................................................................        ",
"        ................................................................................................................        ",
"        ................................................................................................................        ",
"................................................................................................................................",
"................................................................................................................................",
"................................................................................................................................",
"................................................................................................................................",
"................................................................................................................................",
"................................................................................................................................",
"................................................................................................................................",
"................................................................................................................................",
"................................................................................................................................",
"................................................................................................................................",
"................................................................................................................................",
"................................................................................................................................",
"................................................................................................................................",
"................................................................................................................................",
"................................................................................................................................",
"................................................................................................................................",
"++++++++++++++++........@@@@@@@@@@@@@@@@................................########################################################",
"++++++++++++++++........@@@@@@@@@@@@@@@@................................########################################################",
"++++++++++++++++........@@@@@@@@@@@@@@@@................................########################################################",
"++++++++++++++++........@@@@@@@@@@@@@@@@................................########################################################",
"++++++++++++++++........@@@@@@@@@@@@@@@@................................########################################################",
"++++++++++++++++........@@@@@@@@@@@@@@@@................................########################################################",
"++++++++++++++++........@@@@@@@@@@@@@@@@................................########################################################",
"++++++++++++++++........@@@@@@@@@@@@@@@@................................########################################################",
"........................@@@@@@@@@@@@@@@@@@@@@@@@........................################################........################",
"........................@@@@@@@@@@@@@@@@@@@@@@@@........................################################........################",
"........................@@@@@@@@@@@@@@@@@@@@@@@@........................################################........################",
"........................@@@@@@@@@@@@@@@@@@@@@@@@........................################################........################",
"........................@@@@@@@@@@@@@@@@@@@@@@@@........................################################........################",
"........................@@@@@@@@@@@@@@@@@@@@@@@@........................################################........################",
"........................@@@@@@@@@@@@@@@@@@@@@@@@........................################################........################",
"........................@@@@@@@@@@@@@@@@@@@@@@@@........................################################........################",
"++++++++++++++++........@@@@@@@@@@@@@@@@@@@@@@@@@@@@@@@@................################........................################",
"++++++++++++++++........@@@@@@@@@@@@@@@@@@@@@@@@@@@@@@@@................################........................################",
"++++++++++++++++........@@@@@@@@@@@@@@@@@@@@@@@@@@@@@@@@................################........................################",
"++++++++++++++++........@@@@@@@@@@@@@@@@@@@@@@@@@@@@@@@@................################........................################",
"++++++++++++++++........@@@@@@@@@@@@@@@@@@@@@@@@@@@@@@@@................################........................################",
"++++++++++++++++........@@@@@@@@@@@@@@@@@@@@@@@@@@@@@@@@................################........................################",
"++++++++++++++++........@@@@@@@@@@@@@@@@@@@@@@@@@@@@@@@@................################........................################",
"++++++++++++++++........@@@@@@@@@@@@@@@@@@@@@@@@@@@@@@@@................################........................################",
"........................@@@@@@@@@@@@@@@@@@@@@@@@@@@@@@@@@@@@@@@@........################........................################",
"........................@@@@@@@@@@@@@@@@@@@@@@@@@@@@@@@@@@@@@@@@........################........................################",
"........................@@@@@@@@@@@@@@@@@@@@@@@@@@@@@@@@@@@@@@@@........################........................################",
"........................@@@@@@@@@@@@@@@@@@@@@@@@@@@@@@@@@@@@@@@@........################........................################",
"........................@@@@@@@@@@@@@@@@@@@@@@@@@@@@@@@@@@@@@@@@........################........................################",
"........................@@@@@@@@@@@@@@@@@@@@@@@@@@@@@@@@@@@@@@@@........################........................################",
"........................@@@@@@@@@@@@@@@@@@@@@@@@@@@@@@@@@@@@@@@@........################........................################",
"........................@@@@@@@@@@@@@@@@@@@@@@@@@@@@@@@@@@@@@@@@........################........................################",
"++++++++++++++++........@@@@@@@@@@@@@@@@@@@@@@@@@@@@@@@@................################................$$$$$$$$$$$$$$$$########",
"++++++++++++++++........@@@@@@@@@@@@@@@@@@@@@@@@@@@@@@@@................################................$$$$$$$$$$$$$$$$########",
"++++++++++++++++........@@@@@@@@@@@@@@@@@@@@@@@@@@@@@@@@................################................$$$$$$$$$$$$$$$$########",
"++++++++++++++++........@@@@@@@@@@@@@@@@@@@@@@@@@@@@@@@@................################................$$$$$$$$$$$$$$$$########",
"++++++++++++++++........@@@@@@@@@@@@@@@@@@@@@@@@@@@@@@@@................################................$$$$$$$$$$$$$$$$########",
"++++++++++++++++........@@@@@@@@@@@@@@@@@@@@@@@@@@@@@@@@................################................$$$$$$$$$$$$$$$$########",
"++++++++++++++++........@@@@@@@@@@@@@@@@@@@@@@@@@@@@@@@@................################................$$$$$$$$$$$$$$$$########",
"++++++++++++++++........@@@@@@@@@@@@@@@@@@@@@@@@@@@@@@@@................################................$$$$$$$$$$$$$$$$########",
"........................@@@@@@@@@@@@@@@@@@@@@@@@................$$$$$$$$$$$$$$$$########........$$$$$$$$$$$$$$$$$$$$$$$$$$$$$$$$",
"........................@@@@@@@@@@@@@@@@@@@@@@@@................$$$$$$$$$$$$$$$$########........$$$$$$$$$$$$$$$$$$$$$$$$$$$$$$$$",
"........................@@@@@@@@@@@@@@@@@@@@@@@@................$$$$$$$$$$$$$$$$########........$$$$$$$$$$$$$$$$$$$$$$$$$$$$$$$$",
"........................@@@@@@@@@@@@@@@@@@@@@@@@................$$$$$$$$$$$$$$$$########........$$$$$$$$$$$$$$$$$$$$$$$$$$$$$$$$",
"........................@@@@@@@@@@@@@@@@@@@@@@@@................$$$$$$$$$$$$$$$$########........$$$$$$$$$$$$$$$$$$$$$$$$$$$$$$$$",
"........................@@@@@@@@@@@@@@@@@@@@@@@@................$$$$$$$$$$$$$$$$########........$$$$$$$$$$$$$$$$$$$$$$$$$$$$$$$$",
"........................@@@@@@@@@@@@@@@@@@@@@@@@................$$$$$$$$$$$$$$$$########........$$$$$$$$$$$$$$$$$$$$$$$$$$$$$$$$",
"........................@@@@@@@@@@@@@@@@@@@@@@@@................$$$$$$$$$$$$$$$$########........$$$$$$$$$$$$$$$$$$$$$$$$$$$$$$$$",
"++++++++++++++++........@@@@@@@@@@@@@@@@................$$$$$$$$$$$$$$$$$$$$$$$$$$$$$$$$........$$$$$$$$$$$$$$$$$$$$$$$$$$$$$$$$",
"++++++++++++++++........@@@@@@@@@@@@@@@@................$$$$$$$$$$$$$$$$$$$$$$$$$$$$$$$$........$$$$$$$$$$$$$$$$$$$$$$$$$$$$$$$$",
"++++++++++++++++........@@@@@@@@@@@@@@@@................$$$$$$$$$$$$$$$$$$$$$$$$$$$$$$$$........$$$$$$$$$$$$$$$$$$$$$$$$$$$$$$$$",
"++++++++++++++++........@@@@@@@@@@@@@@@@................$$$$$$$$$$$$$$$$$$$$$$$$$$$$$$$$........$$$$$$$$$$$$$$$$$$$$$$$$$$$$$$$$",
"++++++++++++++++........@@@@@@@@@@@@@@@@................$$$$$$$$$$$$$$$$$$$$$$$$$$$$$$$$........$$$$$$$$$$$$$$$$$$$$$$$$$$$$$$$$",
"++++++++++++++++........@@@@@@@@@@@@@@@@................$$$$$$$$$$$$$$$$$$$$$$$$$$$$$$$$........$$$$$$$$$$$$$$$$$$$$$$$$$$$$$$$$",
"++++++++++++++++........@@@@@@@@@@@@@@@@................$$$$$$$$$$$$$$$$$$$$$$$$$$$$$$$$........$$$$$$$$$$$$$$$$$$$$$$$$$$$$$$$$",
"++++++++++++++++........@@@@@@@@@@@@@@@@................$$$$$$$$$$$$$$$$$$$$$$$$$$$$$$$$........$$$$$$$$$$$$$$$$$$$$$$$$$$$$$$$$",
"........................................................$$$$$$$$$$$$$$$$$$$$$$$$$$$$$$$$................$$$$$$$$$$$$$$$$........",
"........................................................$$$$$$$$$$$$$$$$$$$$$$$$$$$$$$$$................$$$$$$$$$$$$$$$$........",
"........................................................$$$$$$$$$$$$$$$$$$$$$$$$$$$$$$$$................$$$$$$$$$$$$$$$$........",
"........................................................$$$$$$$$$$$$$$$$$$$$$$$$$$$$$$$$................$$$$$$$$$$$$$$$$........",
"........................................................$$$$$$$$$$$$$$$$$$$$$$$$$$$$$$$$................$$$$$$$$$$$$$$$$........",
"........................................................$$$$$$$$$$$$$$$$$$$$$$$$$$$$$$$$................$$$$$$$$$$$$$$$$........",
"........................................................$$$$$$$$$$$$$$$$$$$$$$$$$$$$$$$$................$$$$$$$$$$$$$$$$........",
"........................................................$$$$$$$$$$$$$$$$$$$$$$$$$$$$$$$$................$$$$$$$$$$$$$$$$........",
"................................................................$$$$$$$$$$$$$$$$................................................",
"................................................................$$$$$$$$$$$$$$$$................................................",
"................................................................$$$$$$$$$$$$$$$$................................................",
"................................................................$$$$$$$$$$$$$$$$................................................",
"................................................................$$$$$$$$$$$$$$$$................................................",
"................................................................$$$$$$$$$$$$$$$$................................................",
"................................................................$$$$$$$$$$$$$$$$................................................",
"................................................................$$$$$$$$$$$$$$$$................................................",
"        ................................................................................................................        ",
"        ................................................................................................................        ",
"        ................................................................................................................        ",
"        ................................................................................................................        ",
"        ................................................................................................................        ",
"        ................................................................................................................        ",
"        ................................................................................................................        ",
"        ................................................................................................................        "};
