/* XPM */
static char * applications_office_xpm[] = {
"128 96 5 1",
" 	c None",
".	c #666666",
"+	c #FFBD21",
"@	c #4D4D4D",
"#	c #FF8000",
"                                                ................................                                                ",
"                                                ................................                                                ",
"                                                ................................                                                ",
"                                                ................................                                                ",
"                                                ................................                                                ",
"                                                ................................                                                ",
"                                                ................................                                                ",
"                                                ................................                                                ",
"                                ................................................................                                ",
"                                ................................................................                                ",
"                                ................................................................                                ",
"                                ................................................................                                ",
"                                ................................................................                                ",
"                                ................................................................                                ",
"                                ................................................................                                ",
"                                ................................................................                                ",
"                ................................................................................................                ",
"                ................................................................................................                ",
"                ................................................................................................                ",
"                ................................................................................................                ",
"                ................................................................................................                ",
"                ................................................................................................                ",
"                ................................................................................................                ",
"                ................................................................................................                ",
"................................++++++++++++++++++++++++++++++++................................................................",
"................................++++++++++++++++++++++++++++++++................................................................",
"................................++++++++++++++++++++++++++++++++................................................................",
"................................++++++++++++++++++++++++++++++++................................................................",
"................................++++++++++++++++++++++++++++++++................................................................",
"................................++++++++++++++++++++++++++++++++................................................................",
"................................++++++++++++++++++++++++++++++++................................................................",
"................................++++++++++++++++++++++++++++++++................................................................",
"++++++++++++++++++++++++++++++++++++++++........................................................................................",
"++++++++++++++++++++++++++++++++++++++++........................................................................................",
"++++++++++++++++++++++++++++++++++++++++........................................................................................",
"++++++++++++++++++++++++++++++++++++++++........................................................................................",
"++++++++++++++++++++++++++++++++++++++++........................................................................................",
"++++++++++++++++++++++++++++++++++++++++........................................................................................",
"++++++++++++++++++++++++++++++++++++++++........................................................................................",
"++++++++++++++++++++++++++++++++++++++++........................................................................................",
"++++++++        ................................................................................................                ",
"++++++++        ................................................................................................                ",
"++++++++        ................................................................................................                ",
"++++++++        ................................................................................................                ",
"++++++++        ................................................................................................                ",
"++++++++        ................................................................................................                ",
"++++++++        ................................................................................................                ",
"++++++++        ................................................................................................                ",
"++++++++        @@@@@@@@@@@@@@@@................................................................@@@@@@@@@@@@@@@@                ",
"++++++++        @@@@@@@@@@@@@@@@................................................................@@@@@@@@@@@@@@@@                ",
"++++++++        @@@@@@@@@@@@@@@@................................................................@@@@@@@@@@@@@@@@                ",
"++++++++        @@@@@@@@@@@@@@@@................................................................@@@@@@@@@@@@@@@@                ",
"++++++++        @@@@@@@@@@@@@@@@................................................................@@@@@@@@@@@@@@@@                ",
"++++++++        @@@@@@@@@@@@@@@@................................................................@@@@@@@@@@@@@@@@                ",
"++++++++        @@@@@@@@@@@@@@@@................................................................@@@@@@@@@@@@@@@@                ",
"++++++++        @@@@@@@@@@@@@@@@................................................................@@@@@@@@@@@@@@@@                ",
"++++++++        @@@@@@@@@@@@@@@@@@@@@@@@@@@@@@@@................................@@@@@@@@@@@@@@@@@@@@@@@@@@@@@@@@                ",
"++++++++        @@@@@@@@@@@@@@@@@@@@@@@@@@@@@@@@................................@@@@@@@@@@@@@@@@@@@@@@@@@@@@@@@@                ",
"++++++++        @@@@@@@@@@@@@@@@@@@@@@@@@@@@@@@@................................@@@@@@@@@@@@@@@@@@@@@@@@@@@@@@@@                ",
"++++++++        @@@@@@@@@@@@@@@@@@@@@@@@@@@@@@@@................................@@@@@@@@@@@@@@@@@@@@@@@@@@@@@@@@                ",
"++++++++        @@@@@@@@@@@@@@@@@@@@@@@@@@@@@@@@................................@@@@@@@@@@@@@@@@@@@@@@@@@@@@@@@@                ",
"++++++++        @@@@@@@@@@@@@@@@@@@@@@@@@@@@@@@@................................@@@@@@@@@@@@@@@@@@@@@@@@@@@@@@@@                ",
"++++++++        @@@@@@@@@@@@@@@@@@@@@@@@@@@@@@@@................................@@@@@@@@@@@@@@@@@@@@@@@@@@@@@@@@                ",
"++++++++        @@@@@@@@@@@@@@@@@@@@@@@@@@@@@@@@................................@@@@@@@@@@@@@@@@@@@@@@@@@@@@@@@@                ",
"################@@@@@@@@@@@@@@@@@@@@@@@@@@@@@@@@@@@@@@@@@@@@@@@@@@@@@@@@@@@@@@@@@@@@@@@@@@@@@@@@@@@@@@@@@@@@@@@@                ",
"################@@@@@@@@@@@@@@@@@@@@@@@@@@@@@@@@@@@@@@@@@@@@@@@@@@@@@@@@@@@@@@@@@@@@@@@@@@@@@@@@@@@@@@@@@@@@@@@@                ",
"################@@@@@@@@@@@@@@@@@@@@@@@@@@@@@@@@@@@@@@@@@@@@@@@@@@@@@@@@@@@@@@@@@@@@@@@@@@@@@@@@@@@@@@@@@@@@@@@@                ",
"################@@@@@@@@@@@@@@@@@@@@@@@@@@@@@@@@@@@@@@@@@@@@@@@@@@@@@@@@@@@@@@@@@@@@@@@@@@@@@@@@@@@@@@@@@@@@@@@@                ",
"################@@@@@@@@@@@@@@@@@@@@@@@@@@@@@@@@@@@@@@@@@@@@@@@@@@@@@@@@@@@@@@@@@@@@@@@@@@@@@@@@@@@@@@@@@@@@@@@@                ",
"################@@@@@@@@@@@@@@@@@@@@@@@@@@@@@@@@@@@@@@@@@@@@@@@@@@@@@@@@@@@@@@@@@@@@@@@@@@@@@@@@@@@@@@@@@@@@@@@@                ",
"################@@@@@@@@@@@@@@@@@@@@@@@@@@@@@@@@@@@@@@@@@@@@@@@@@@@@@@@@@@@@@@@@@@@@@@@@@@@@@@@@@@@@@@@@@@@@@@@@                ",
"################@@@@@@@@@@@@@@@@@@@@@@@@@@@@@@@@@@@@@@@@@@@@@@@@@@@@@@@@@@@@@@@@@@@@@@@@@@@@@@@@@@@@@@@@@@@@@@@@                ",
"################        @@@@@@@@@@@@@@@@@@@@@@@@@@@@@@@@@@@@@@@@@@@@@@@@@@@@@@@@@@@@@@@@@@@@@@@@@@@@@@@@                        ",
"################        @@@@@@@@@@@@@@@@@@@@@@@@@@@@@@@@@@@@@@@@@@@@@@@@@@@@@@@@@@@@@@@@@@@@@@@@@@@@@@@@                        ",
"################        @@@@@@@@@@@@@@@@@@@@@@@@@@@@@@@@@@@@@@@@@@@@@@@@@@@@@@@@@@@@@@@@@@@@@@@@@@@@@@@@                        ",
"################        @@@@@@@@@@@@@@@@@@@@@@@@@@@@@@@@@@@@@@@@@@@@@@@@@@@@@@@@@@@@@@@@@@@@@@@@@@@@@@@@                        ",
"################        @@@@@@@@@@@@@@@@@@@@@@@@@@@@@@@@@@@@@@@@@@@@@@@@@@@@@@@@@@@@@@@@@@@@@@@@@@@@@@@@                        ",
"################        @@@@@@@@@@@@@@@@@@@@@@@@@@@@@@@@@@@@@@@@@@@@@@@@@@@@@@@@@@@@@@@@@@@@@@@@@@@@@@@@                        ",
"################        @@@@@@@@@@@@@@@@@@@@@@@@@@@@@@@@@@@@@@@@@@@@@@@@@@@@@@@@@@@@@@@@@@@@@@@@@@@@@@@@                        ",
"################        @@@@@@@@@@@@@@@@@@@@@@@@@@@@@@@@@@@@@@@@@@@@@@@@@@@@@@@@@@@@@@@@@@@@@@@@@@@@@@@@                        ",
"################                @@@@@@@@@@@@@@@@@@@@@@@@@@@@@@@@@@@@@@@@@@@@@@@@@@@@@@@@@@@@@@@@                                ",
"################                @@@@@@@@@@@@@@@@@@@@@@@@@@@@@@@@@@@@@@@@@@@@@@@@@@@@@@@@@@@@@@@@                                ",
"################                @@@@@@@@@@@@@@@@@@@@@@@@@@@@@@@@@@@@@@@@@@@@@@@@@@@@@@@@@@@@@@@@                                ",
"################                @@@@@@@@@@@@@@@@@@@@@@@@@@@@@@@@@@@@@@@@@@@@@@@@@@@@@@@@@@@@@@@@                                ",
"################                @@@@@@@@@@@@@@@@@@@@@@@@@@@@@@@@@@@@@@@@@@@@@@@@@@@@@@@@@@@@@@@@                                ",
"################                @@@@@@@@@@@@@@@@@@@@@@@@@@@@@@@@@@@@@@@@@@@@@@@@@@@@@@@@@@@@@@@@                                ",
"################                @@@@@@@@@@@@@@@@@@@@@@@@@@@@@@@@@@@@@@@@@@@@@@@@@@@@@@@@@@@@@@@@                                ",
"################                @@@@@@@@@@@@@@@@@@@@@@@@@@@@@@@@@@@@@@@@@@@@@@@@@@@@@@@@@@@@@@@@                                ",
"################                                                                                                                ",
"################                                                                                                                ",
"################                                                                                                                ",
"################                                                                                                                ",
"################                                                                                                                ",
"################                                                                                                                ",
"################                                                                                                                ",
"################                                                                                                                "};
