/* XPM */
static char * logout_11x11_xpm[] = {
"128 128 3 1",
" 	c None",
".	c #B53A31",
"+	c #FFFFFF",
"                                        ................................................                                        ",
"                                        ................................................                                        ",
"                                        ................................................                                        ",
"                                        ................................................                                        ",
"                                        ................................................                                        ",
"                                        ................................................                                        ",
"                                        ................................................                                        ",
"                                        ................................................                                        ",
"                        ................................................................................                        ",
"                        ................................................................................                        ",
"                        ................................................................................                        ",
"                        ................................................................................                        ",
"                        ................................................................................                        ",
"                        ................................................................................                        ",
"                        ................................................................................                        ",
"                        ................................................................................                        ",
"                ........................................++++++++++++++++........................................                ",
"                ........................................++++++++++++++++........................................                ",
"                ........................................++++++++++++++++........................................                ",
"                ........................................++++++++++++++++........................................                ",
"                ........................................++++++++++++++++........................................                ",
"                ........................................++++++++++++++++........................................                ",
"                ........................................++++++++++++++++........................................                ",
"                ........................................++++++++++++++++........................................                ",
"        ........................++++++++++++++++........++++++++++++++++........++++++++++++++++........................        ",
"        ........................++++++++++++++++........++++++++++++++++........++++++++++++++++........................        ",
"        ........................++++++++++++++++........++++++++++++++++........++++++++++++++++........................        ",
"        ........................++++++++++++++++........++++++++++++++++........++++++++++++++++........................        ",
"        ........................++++++++++++++++........++++++++++++++++........++++++++++++++++........................        ",
"        ........................++++++++++++++++........++++++++++++++++........++++++++++++++++........................        ",
"        ........................++++++++++++++++........++++++++++++++++........++++++++++++++++........................        ",
"        ........................++++++++++++++++........++++++++++++++++........++++++++++++++++........................        ",
"        ................++++++++++++++++++++++++........++++++++++++++++........++++++++++++++++++++++++................        ",
"        ................++++++++++++++++++++++++........++++++++++++++++........++++++++++++++++++++++++................        ",
"        ................++++++++++++++++++++++++........++++++++++++++++........++++++++++++++++++++++++................        ",
"        ................++++++++++++++++++++++++........++++++++++++++++........++++++++++++++++++++++++................        ",
"        ................++++++++++++++++++++++++........++++++++++++++++........++++++++++++++++++++++++................        ",
"        ................++++++++++++++++++++++++........++++++++++++++++........++++++++++++++++++++++++................        ",
"        ................++++++++++++++++++++++++........++++++++++++++++........++++++++++++++++++++++++................        ",
"        ................++++++++++++++++++++++++........++++++++++++++++........++++++++++++++++++++++++................        ",
"........................++++++++++++++++................++++++++++++++++................++++++++++++++++........................",
"........................++++++++++++++++................++++++++++++++++................++++++++++++++++........................",
"........................++++++++++++++++................++++++++++++++++................++++++++++++++++........................",
"........................++++++++++++++++................++++++++++++++++................++++++++++++++++........................",
"........................++++++++++++++++................++++++++++++++++................++++++++++++++++........................",
"........................++++++++++++++++................++++++++++++++++................++++++++++++++++........................",
"........................++++++++++++++++................++++++++++++++++................++++++++++++++++........................",
"........................++++++++++++++++................++++++++++++++++................++++++++++++++++........................",
"................++++++++++++++++........................++++++++++++++++........................++++++++++++++++................",
"................++++++++++++++++........................++++++++++++++++........................++++++++++++++++................",
"................++++++++++++++++........................++++++++++++++++........................++++++++++++++++................",
"................++++++++++++++++........................++++++++++++++++........................++++++++++++++++................",
"................++++++++++++++++........................++++++++++++++++........................++++++++++++++++................",
"................++++++++++++++++........................++++++++++++++++........................++++++++++++++++................",
"................++++++++++++++++........................++++++++++++++++........................++++++++++++++++................",
"................++++++++++++++++........................++++++++++++++++........................++++++++++++++++................",
"................++++++++++++++++........................++++++++++++++++........................++++++++++++++++................",
"................++++++++++++++++........................++++++++++++++++........................++++++++++++++++................",
"................++++++++++++++++........................++++++++++++++++........................++++++++++++++++................",
"................++++++++++++++++........................++++++++++++++++........................++++++++++++++++................",
"................++++++++++++++++........................++++++++++++++++........................++++++++++++++++................",
"................++++++++++++++++........................++++++++++++++++........................++++++++++++++++................",
"................++++++++++++++++........................++++++++++++++++........................++++++++++++++++................",
"................++++++++++++++++........................++++++++++++++++........................++++++++++++++++................",
"................++++++++++++++++................................................................++++++++++++++++................",
"................++++++++++++++++................................................................++++++++++++++++................",
"................++++++++++++++++................................................................++++++++++++++++................",
"................++++++++++++++++................................................................++++++++++++++++................",
"................++++++++++++++++................................................................++++++++++++++++................",
"................++++++++++++++++................................................................++++++++++++++++................",
"................++++++++++++++++................................................................++++++++++++++++................",
"................++++++++++++++++................................................................++++++++++++++++................",
"................++++++++++++++++................................................................++++++++++++++++................",
"................++++++++++++++++................................................................++++++++++++++++................",
"................++++++++++++++++................................................................++++++++++++++++................",
"................++++++++++++++++................................................................++++++++++++++++................",
"................++++++++++++++++................................................................++++++++++++++++................",
"................++++++++++++++++................................................................++++++++++++++++................",
"................++++++++++++++++................................................................++++++++++++++++................",
"................++++++++++++++++................................................................++++++++++++++++................",
"........................++++++++++++++++................................................++++++++++++++++........................",
"........................++++++++++++++++................................................++++++++++++++++........................",
"........................++++++++++++++++................................................++++++++++++++++........................",
"........................++++++++++++++++................................................++++++++++++++++........................",
"........................++++++++++++++++................................................++++++++++++++++........................",
"........................++++++++++++++++................................................++++++++++++++++........................",
"........................++++++++++++++++................................................++++++++++++++++........................",
"........................++++++++++++++++................................................++++++++++++++++........................",
"        ................++++++++++++++++++++++++................................++++++++++++++++++++++++................        ",
"        ................++++++++++++++++++++++++................................++++++++++++++++++++++++................        ",
"        ................++++++++++++++++++++++++................................++++++++++++++++++++++++................        ",
"        ................++++++++++++++++++++++++................................++++++++++++++++++++++++................        ",
"        ................++++++++++++++++++++++++................................++++++++++++++++++++++++................        ",
"        ................++++++++++++++++++++++++................................++++++++++++++++++++++++................        ",
"        ................++++++++++++++++++++++++................................++++++++++++++++++++++++................        ",
"        ................++++++++++++++++++++++++................................++++++++++++++++++++++++................        ",
"        ........................++++++++++++++++++++++++++++++++++++++++++++++++++++++++++++++++........................        ",
"        ........................++++++++++++++++++++++++++++++++++++++++++++++++++++++++++++++++........................        ",
"        ........................++++++++++++++++++++++++++++++++++++++++++++++++++++++++++++++++........................        ",
"        ........................++++++++++++++++++++++++++++++++++++++++++++++++++++++++++++++++........................        ",
"        ........................++++++++++++++++++++++++++++++++++++++++++++++++++++++++++++++++........................        ",
"        ........................++++++++++++++++++++++++++++++++++++++++++++++++++++++++++++++++........................        ",
"        ........................++++++++++++++++++++++++++++++++++++++++++++++++++++++++++++++++........................        ",
"        ........................++++++++++++++++++++++++++++++++++++++++++++++++++++++++++++++++........................        ",
"                ........................++++++++++++++++++++++++++++++++++++++++++++++++........................                ",
"                ........................++++++++++++++++++++++++++++++++++++++++++++++++........................                ",
"                ........................++++++++++++++++++++++++++++++++++++++++++++++++........................                ",
"                ........................++++++++++++++++++++++++++++++++++++++++++++++++........................                ",
"                ........................++++++++++++++++++++++++++++++++++++++++++++++++........................                ",
"                ........................++++++++++++++++++++++++++++++++++++++++++++++++........................                ",
"                ........................++++++++++++++++++++++++++++++++++++++++++++++++........................                ",
"                ........................++++++++++++++++++++++++++++++++++++++++++++++++........................                ",
"                        ................................................................................                        ",
"                        ................................................................................                        ",
"                        ................................................................................                        ",
"                        ................................................................................                        ",
"                        ................................................................................                        ",
"                        ................................................................................                        ",
"                        ................................................................................                        ",
"                        ................................................................................                        ",
"                                        ................................................                                        ",
"                                        ................................................                                        ",
"                                        ................................................                                        ",
"                                        ................................................                                        ",
"                                        ................................................                                        ",
"                                        ................................................                                        ",
"                                        ................................................                                        ",
"                                        ................................................                                        "};
