/* XPM */
static char * settings_11x11_xpm[] = {
"128 128 3 1",
" 	c None",
".	c #FFFFFF",
"+	c #2F2F2F",
"                                                ................................                                                ",
"                                                ................................                                                ",
"                                                ................................                                                ",
"                                                ................................                                                ",
"                                                ................................                                                ",
"                                                ................................                                                ",
"                                                ................................                                                ",
"                                                ................................                                                ",
"                                                ........++++++++++++++++........                                                ",
"                                                ........++++++++++++++++........                                                ",
"                                                ........++++++++++++++++........                                                ",
"                                                ........++++++++++++++++........                                                ",
"                                                ........++++++++++++++++........                                                ",
"                                                ........++++++++++++++++........                                                ",
"                                                ........++++++++++++++++........                                                ",
"                                                ........++++++++++++++++........                                                ",
"                                ................++++++++++++++++++++++++++++++++................                                ",
"                                ................++++++++++++++++++++++++++++++++................                                ",
"                                ................++++++++++++++++++++++++++++++++................                                ",
"                                ................++++++++++++++++++++++++++++++++................                                ",
"                                ................++++++++++++++++++++++++++++++++................                                ",
"                                ................++++++++++++++++++++++++++++++++................                                ",
"                                ................++++++++++++++++++++++++++++++++................                                ",
"                                ................++++++++++++++++++++++++++++++++................                                ",
"................................++++++++++++++++++++++++++++++++++++++++++++++++++++++++++++++++................................",
"................................++++++++++++++++++++++++++++++++++++++++++++++++++++++++++++++++................................",
"................................++++++++++++++++++++++++++++++++++++++++++++++++++++++++++++++++................................",
"................................++++++++++++++++++++++++++++++++++++++++++++++++++++++++++++++++................................",
"................................++++++++++++++++++++++++++++++++++++++++++++++++++++++++++++++++................................",
"................................++++++++++++++++++++++++++++++++++++++++++++++++++++++++++++++++................................",
"................................++++++++++++++++++++++++++++++++++++++++++++++++++++++++++++++++................................",
"................................++++++++++++++++++++++++++++++++++++++++++++++++++++++++++++++++................................",
"........++++++++++++++++++++++++++++++++++++++++++++++++++++++++++++++++++++++++++++++++++++++++++++++++++++++++++++++++........",
"........++++++++++++++++++++++++++++++++++++++++++++++++++++++++++++++++++++++++++++++++++++++++++++++++++++++++++++++++........",
"........++++++++++++++++++++++++++++++++++++++++++++++++++++++++++++++++++++++++++++++++++++++++++++++++++++++++++++++++........",
"........++++++++++++++++++++++++++++++++++++++++++++++++++++++++++++++++++++++++++++++++++++++++++++++++++++++++++++++++........",
"........++++++++++++++++++++++++++++++++++++++++++++++++++++++++++++++++++++++++++++++++++++++++++++++++++++++++++++++++........",
"........++++++++++++++++++++++++++++++++++++++++++++++++++++++++++++++++++++++++++++++++++++++++++++++++++++++++++++++++........",
"........++++++++++++++++++++++++++++++++++++++++++++++++++++++++++++++++++++++++++++++++++++++++++++++++++++++++++++++++........",
"........++++++++++++++++++++++++++++++++++++++++++++++++++++++++++++++++++++++++++++++++++++++++++++++++++++++++++++++++........",
"........++++++++++++++++++++++++++++++++++++++++++++++++++++++++++++++++++++++++++++++++++++++++++++++++++++++++++++++++........",
"........++++++++++++++++++++++++++++++++++++++++++++++++++++++++++++++++++++++++++++++++++++++++++++++++++++++++++++++++........",
"........++++++++++++++++++++++++++++++++++++++++++++++++++++++++++++++++++++++++++++++++++++++++++++++++++++++++++++++++........",
"........++++++++++++++++++++++++++++++++++++++++++++++++++++++++++++++++++++++++++++++++++++++++++++++++++++++++++++++++........",
"........++++++++++++++++++++++++++++++++++++++++++++++++++++++++++++++++++++++++++++++++++++++++++++++++++++++++++++++++........",
"........++++++++++++++++++++++++++++++++++++++++++++++++++++++++++++++++++++++++++++++++++++++++++++++++++++++++++++++++........",
"........++++++++++++++++++++++++++++++++++++++++++++++++++++++++++++++++++++++++++++++++++++++++++++++++++++++++++++++++........",
"........++++++++++++++++++++++++++++++++++++++++++++++++++++++++++++++++++++++++++++++++++++++++++++++++++++++++++++++++........",
"        ........++++++++++++++++++++++++++++++++................................++++++++++++++++++++++++++++++++........        ",
"        ........++++++++++++++++++++++++++++++++................................++++++++++++++++++++++++++++++++........        ",
"        ........++++++++++++++++++++++++++++++++................................++++++++++++++++++++++++++++++++........        ",
"        ........++++++++++++++++++++++++++++++++................................++++++++++++++++++++++++++++++++........        ",
"        ........++++++++++++++++++++++++++++++++................................++++++++++++++++++++++++++++++++........        ",
"        ........++++++++++++++++++++++++++++++++................................++++++++++++++++++++++++++++++++........        ",
"        ........++++++++++++++++++++++++++++++++................................++++++++++++++++++++++++++++++++........        ",
"        ........++++++++++++++++++++++++++++++++................................++++++++++++++++++++++++++++++++........        ",
"                ........++++++++++++++++................................................++++++++++++++++........                ",
"                ........++++++++++++++++................................................++++++++++++++++........                ",
"                ........++++++++++++++++................................................++++++++++++++++........                ",
"                ........++++++++++++++++................................................++++++++++++++++........                ",
"                ........++++++++++++++++................................................++++++++++++++++........                ",
"                ........++++++++++++++++................................................++++++++++++++++........                ",
"                ........++++++++++++++++................................................++++++++++++++++........                ",
"                ........++++++++++++++++................................................++++++++++++++++........                ",
"                ........++++++++++++++++................................................++++++++++++++++........                ",
"                ........++++++++++++++++................................................++++++++++++++++........                ",
"                ........++++++++++++++++................................................++++++++++++++++........                ",
"                ........++++++++++++++++................................................++++++++++++++++........                ",
"                ........++++++++++++++++................................................++++++++++++++++........                ",
"                ........++++++++++++++++................................................++++++++++++++++........                ",
"                ........++++++++++++++++................................................++++++++++++++++........                ",
"                ........++++++++++++++++................................................++++++++++++++++........                ",
"                ........++++++++++++++++................................................++++++++++++++++........                ",
"                ........++++++++++++++++................................................++++++++++++++++........                ",
"                ........++++++++++++++++................................................++++++++++++++++........                ",
"                ........++++++++++++++++................................................++++++++++++++++........                ",
"                ........++++++++++++++++................................................++++++++++++++++........                ",
"                ........++++++++++++++++................................................++++++++++++++++........                ",
"                ........++++++++++++++++................................................++++++++++++++++........                ",
"                ........++++++++++++++++................................................++++++++++++++++........                ",
"        ........++++++++++++++++++++++++++++++++................................++++++++++++++++++++++++++++++++........        ",
"        ........++++++++++++++++++++++++++++++++................................++++++++++++++++++++++++++++++++........        ",
"        ........++++++++++++++++++++++++++++++++................................++++++++++++++++++++++++++++++++........        ",
"        ........++++++++++++++++++++++++++++++++................................++++++++++++++++++++++++++++++++........        ",
"        ........++++++++++++++++++++++++++++++++................................++++++++++++++++++++++++++++++++........        ",
"        ........++++++++++++++++++++++++++++++++................................++++++++++++++++++++++++++++++++........        ",
"        ........++++++++++++++++++++++++++++++++................................++++++++++++++++++++++++++++++++........        ",
"        ........++++++++++++++++++++++++++++++++................................++++++++++++++++++++++++++++++++........        ",
"........++++++++++++++++++++++++++++++++++++++++++++++++++++++++++++++++++++++++++++++++++++++++++++++++++++++++++++++++........",
"........++++++++++++++++++++++++++++++++++++++++++++++++++++++++++++++++++++++++++++++++++++++++++++++++++++++++++++++++........",
"........++++++++++++++++++++++++++++++++++++++++++++++++++++++++++++++++++++++++++++++++++++++++++++++++++++++++++++++++........",
"........++++++++++++++++++++++++++++++++++++++++++++++++++++++++++++++++++++++++++++++++++++++++++++++++++++++++++++++++........",
"........++++++++++++++++++++++++++++++++++++++++++++++++++++++++++++++++++++++++++++++++++++++++++++++++++++++++++++++++........",
"........++++++++++++++++++++++++++++++++++++++++++++++++++++++++++++++++++++++++++++++++++++++++++++++++++++++++++++++++........",
"........++++++++++++++++++++++++++++++++++++++++++++++++++++++++++++++++++++++++++++++++++++++++++++++++++++++++++++++++........",
"........++++++++++++++++++++++++++++++++++++++++++++++++++++++++++++++++++++++++++++++++++++++++++++++++++++++++++++++++........",
"........++++++++++++++++++++++++++++++++++++++++++++++++++++++++++++++++++++++++++++++++++++++++++++++++++++++++++++++++........",
"........++++++++++++++++++++++++++++++++++++++++++++++++++++++++++++++++++++++++++++++++++++++++++++++++++++++++++++++++........",
"........++++++++++++++++++++++++++++++++++++++++++++++++++++++++++++++++++++++++++++++++++++++++++++++++++++++++++++++++........",
"........++++++++++++++++++++++++++++++++++++++++++++++++++++++++++++++++++++++++++++++++++++++++++++++++++++++++++++++++........",
"........++++++++++++++++++++++++++++++++++++++++++++++++++++++++++++++++++++++++++++++++++++++++++++++++++++++++++++++++........",
"........++++++++++++++++++++++++++++++++++++++++++++++++++++++++++++++++++++++++++++++++++++++++++++++++++++++++++++++++........",
"........++++++++++++++++++++++++++++++++++++++++++++++++++++++++++++++++++++++++++++++++++++++++++++++++++++++++++++++++........",
"........++++++++++++++++++++++++++++++++++++++++++++++++++++++++++++++++++++++++++++++++++++++++++++++++++++++++++++++++........",
"        ................................++++++++++++++++++++++++++++++++++++++++++++++++................................        ",
"        ................................++++++++++++++++++++++++++++++++++++++++++++++++................................        ",
"        ................................++++++++++++++++++++++++++++++++++++++++++++++++................................        ",
"        ................................++++++++++++++++++++++++++++++++++++++++++++++++................................        ",
"        ................................++++++++++++++++++++++++++++++++++++++++++++++++................................        ",
"        ................................++++++++++++++++++++++++++++++++++++++++++++++++................................        ",
"        ................................++++++++++++++++++++++++++++++++++++++++++++++++................................        ",
"        ................................++++++++++++++++++++++++++++++++++++++++++++++++................................        ",
"                                        ........++++++++++++++++++++++++++++++++........                                        ",
"                                        ........++++++++++++++++++++++++++++++++........                                        ",
"                                        ........++++++++++++++++++++++++++++++++........                                        ",
"                                        ........++++++++++++++++++++++++++++++++........                                        ",
"                                        ........++++++++++++++++++++++++++++++++........                                        ",
"                                        ........++++++++++++++++++++++++++++++++........                                        ",
"                                        ........++++++++++++++++++++++++++++++++........                                        ",
"                                        ........++++++++++++++++++++++++++++++++........                                        ",
"                                                ................................                                                ",
"                                                ................................                                                ",
"                                                ................................                                                ",
"                                                ................................                                                ",
"                                                ................................                                                ",
"                                                ................................                                                ",
"                                                ................................                                                ",
"                                                ................................                                                "};
