/* XPM */
static char * programs_11x11_xpm[] = {
"128 128 5 1",
" 	c None",
".	c #434343",
"+	c #FFFFFF",
"@	c #5F5F5F",
"#	c #2F2F2F",
"                                                                                                                                ",
"                                                                                                                                ",
"                                                                                                                                ",
"                                                                                                                                ",
"                                                                                                                                ",
"                                                                                                                                ",
"                                                                                                                                ",
"                                                                                                                                ",
"                                                                                                                                ",
"                                                                                                                                ",
"                                                                                                                                ",
"                                                                                                                                ",
"                                                                                                                                ",
"                                                                                                                                ",
"                                                                                                                                ",
"                                                                                                                                ",
"        ................................................                                                                        ",
"        ................................................                                                                        ",
"        ................................................                                                                        ",
"        ................................................                                                                        ",
"        ................................................                                                                        ",
"        ................................................                                                                        ",
"        ................................................                                                                        ",
"        ................................................                                                                        ",
"        ................................................................................................................        ",
"        ................................................................................................................        ",
"        ................................................................................................................        ",
"        ................................................................................................................        ",
"        ................................................................................................................        ",
"        ................................................................................................................        ",
"        ................................................................................................................        ",
"        ................................................................................................................        ",
"        ........++++++++++++++++++++++++++++++++++++++++++++++++++++++++++++++++++++++++++++++++++++++++++++++++++++++++        ",
"        ........++++++++++++++++++++++++++++++++++++++++++++++++++++++++++++++++++++++++++++++++++++++++++++++++++++++++        ",
"        ........++++++++++++++++++++++++++++++++++++++++++++++++++++++++++++++++++++++++++++++++++++++++++++++++++++++++        ",
"        ........++++++++++++++++++++++++++++++++++++++++++++++++++++++++++++++++++++++++++++++++++++++++++++++++++++++++        ",
"        ........++++++++++++++++++++++++++++++++++++++++++++++++++++++++++++++++++++++++++++++++++++++++++++++++++++++++        ",
"        ........++++++++++++++++++++++++++++++++++++++++++++++++++++++++++++++++++++++++++++++++++++++++++++++++++++++++        ",
"        ........++++++++++++++++++++++++++++++++++++++++++++++++++++++++++++++++++++++++++++++++++++++++++++++++++++++++        ",
"        ........++++++++++++++++++++++++++++++++++++++++++++++++++++++++++++++++++++++++++++++++++++++++++++++++++++++++        ",
"        ........++++++++++++++++++++++++++++++++++++++++++++++++++++++++++++++++++++++++++++++++++++++++++++++++++++++++        ",
"        ........++++++++++++++++++++++++++++++++++++++++++++++++++++++++++++++++++++++++++++++++++++++++++++++++++++++++        ",
"        ........++++++++++++++++++++++++++++++++++++++++++++++++++++++++++++++++++++++++++++++++++++++++++++++++++++++++        ",
"        ........++++++++++++++++++++++++++++++++++++++++++++++++++++++++++++++++++++++++++++++++++++++++++++++++++++++++        ",
"        ........++++++++++++++++++++++++++++++++++++++++++++++++++++++++++++++++++++++++++++++++++++++++++++++++++++++++        ",
"        ........++++++++++++++++++++++++++++++++++++++++++++++++++++++++++++++++++++++++++++++++++++++++++++++++++++++++        ",
"        ........++++++++++++++++++++++++++++++++++++++++++++++++++++++++++++++++++++++++++++++++++++++++++++++++++++++++        ",
"        ........++++++++++++++++++++++++++++++++++++++++++++++++++++++++++++++++++++++++++++++++++++++++++++++++++++++++        ",
"        @@@@@@@@@@@@@@@@@@@@@@@@@@@@@@@@@@@@@@@@@@@@@@@@@@@@@@@@@@@@@@@@@@@@@@@@@@@@@@@@@@@@@@@@@@@@@@@@@@@@@@@@@@@@@@@@        ",
"        @@@@@@@@@@@@@@@@@@@@@@@@@@@@@@@@@@@@@@@@@@@@@@@@@@@@@@@@@@@@@@@@@@@@@@@@@@@@@@@@@@@@@@@@@@@@@@@@@@@@@@@@@@@@@@@@        ",
"        @@@@@@@@@@@@@@@@@@@@@@@@@@@@@@@@@@@@@@@@@@@@@@@@@@@@@@@@@@@@@@@@@@@@@@@@@@@@@@@@@@@@@@@@@@@@@@@@@@@@@@@@@@@@@@@@        ",
"        @@@@@@@@@@@@@@@@@@@@@@@@@@@@@@@@@@@@@@@@@@@@@@@@@@@@@@@@@@@@@@@@@@@@@@@@@@@@@@@@@@@@@@@@@@@@@@@@@@@@@@@@@@@@@@@@        ",
"        @@@@@@@@@@@@@@@@@@@@@@@@@@@@@@@@@@@@@@@@@@@@@@@@@@@@@@@@@@@@@@@@@@@@@@@@@@@@@@@@@@@@@@@@@@@@@@@@@@@@@@@@@@@@@@@@        ",
"        @@@@@@@@@@@@@@@@@@@@@@@@@@@@@@@@@@@@@@@@@@@@@@@@@@@@@@@@@@@@@@@@@@@@@@@@@@@@@@@@@@@@@@@@@@@@@@@@@@@@@@@@@@@@@@@@        ",
"        @@@@@@@@@@@@@@@@@@@@@@@@@@@@@@@@@@@@@@@@@@@@@@@@@@@@@@@@@@@@@@@@@@@@@@@@@@@@@@@@@@@@@@@@@@@@@@@@@@@@@@@@@@@@@@@@        ",
"        @@@@@@@@@@@@@@@@@@@@@@@@@@@@@@@@@@@@@@@@@@@@@@@@@@@@@@@@@@@@@@@@@@@@@@@@@@@@@@@@@@@@@@@@@@@@@@@@@@@@@@@@@@@@@@@@        ",
"        @@@@@@@@########################################@@@@@@@@@@@@@@@@########################################@@@@@@@@        ",
"        @@@@@@@@########################################@@@@@@@@@@@@@@@@########################################@@@@@@@@        ",
"        @@@@@@@@########################################@@@@@@@@@@@@@@@@########################################@@@@@@@@        ",
"        @@@@@@@@########################################@@@@@@@@@@@@@@@@########################################@@@@@@@@        ",
"        @@@@@@@@########################################@@@@@@@@@@@@@@@@########################################@@@@@@@@        ",
"        @@@@@@@@########################################@@@@@@@@@@@@@@@@########################################@@@@@@@@        ",
"        @@@@@@@@########################################@@@@@@@@@@@@@@@@########################################@@@@@@@@        ",
"        @@@@@@@@########################################@@@@@@@@@@@@@@@@########################################@@@@@@@@        ",
"        @@@@@@@@########################################@@@@@@@@@@@@@@@@########################################@@@@@@@@        ",
"        @@@@@@@@########################################@@@@@@@@@@@@@@@@########################################@@@@@@@@        ",
"        @@@@@@@@########################################@@@@@@@@@@@@@@@@########################################@@@@@@@@        ",
"        @@@@@@@@########################################@@@@@@@@@@@@@@@@########################################@@@@@@@@        ",
"        @@@@@@@@########################################@@@@@@@@@@@@@@@@########################################@@@@@@@@        ",
"        @@@@@@@@########################################@@@@@@@@@@@@@@@@########################################@@@@@@@@        ",
"        @@@@@@@@########################################@@@@@@@@@@@@@@@@########################################@@@@@@@@        ",
"        @@@@@@@@########################################@@@@@@@@@@@@@@@@########################################@@@@@@@@        ",
"        @@@@@@@@@@@@@@@@@@@@@@@@@@@@@@@@@@@@@@@@@@@@@@@@@@@@@@@@@@@@@@@@@@@@@@@@@@@@@@@@@@@@@@@@@@@@@@@@@@@@@@@@@@@@@@@@        ",
"        @@@@@@@@@@@@@@@@@@@@@@@@@@@@@@@@@@@@@@@@@@@@@@@@@@@@@@@@@@@@@@@@@@@@@@@@@@@@@@@@@@@@@@@@@@@@@@@@@@@@@@@@@@@@@@@@        ",
"        @@@@@@@@@@@@@@@@@@@@@@@@@@@@@@@@@@@@@@@@@@@@@@@@@@@@@@@@@@@@@@@@@@@@@@@@@@@@@@@@@@@@@@@@@@@@@@@@@@@@@@@@@@@@@@@@        ",
"        @@@@@@@@@@@@@@@@@@@@@@@@@@@@@@@@@@@@@@@@@@@@@@@@@@@@@@@@@@@@@@@@@@@@@@@@@@@@@@@@@@@@@@@@@@@@@@@@@@@@@@@@@@@@@@@@        ",
"        @@@@@@@@@@@@@@@@@@@@@@@@@@@@@@@@@@@@@@@@@@@@@@@@@@@@@@@@@@@@@@@@@@@@@@@@@@@@@@@@@@@@@@@@@@@@@@@@@@@@@@@@@@@@@@@@        ",
"        @@@@@@@@@@@@@@@@@@@@@@@@@@@@@@@@@@@@@@@@@@@@@@@@@@@@@@@@@@@@@@@@@@@@@@@@@@@@@@@@@@@@@@@@@@@@@@@@@@@@@@@@@@@@@@@@        ",
"        @@@@@@@@@@@@@@@@@@@@@@@@@@@@@@@@@@@@@@@@@@@@@@@@@@@@@@@@@@@@@@@@@@@@@@@@@@@@@@@@@@@@@@@@@@@@@@@@@@@@@@@@@@@@@@@@        ",
"        @@@@@@@@@@@@@@@@@@@@@@@@@@@@@@@@@@@@@@@@@@@@@@@@@@@@@@@@@@@@@@@@@@@@@@@@@@@@@@@@@@@@@@@@@@@@@@@@@@@@@@@@@@@@@@@@        ",
"        @@@@@@@@########################################@@@@@@@@@@@@@@@@@@@@@@@@@@@@@@@@########@@@@@@@@@@@@@@@@@@@@@@@@        ",
"        @@@@@@@@########################################@@@@@@@@@@@@@@@@@@@@@@@@@@@@@@@@########@@@@@@@@@@@@@@@@@@@@@@@@        ",
"        @@@@@@@@########################################@@@@@@@@@@@@@@@@@@@@@@@@@@@@@@@@########@@@@@@@@@@@@@@@@@@@@@@@@        ",
"        @@@@@@@@########################################@@@@@@@@@@@@@@@@@@@@@@@@@@@@@@@@########@@@@@@@@@@@@@@@@@@@@@@@@        ",
"        @@@@@@@@########################################@@@@@@@@@@@@@@@@@@@@@@@@@@@@@@@@########@@@@@@@@@@@@@@@@@@@@@@@@        ",
"        @@@@@@@@########################################@@@@@@@@@@@@@@@@@@@@@@@@@@@@@@@@########@@@@@@@@@@@@@@@@@@@@@@@@        ",
"        @@@@@@@@########################################@@@@@@@@@@@@@@@@@@@@@@@@@@@@@@@@########@@@@@@@@@@@@@@@@@@@@@@@@        ",
"        @@@@@@@@########################################@@@@@@@@@@@@@@@@@@@@@@@@@@@@@@@@########@@@@@@@@@@@@@@@@@@@@@@@@        ",
"        @@@@@@@@########################################@@@@@@@@@@@@@@@@########################################@@@@@@@@        ",
"        @@@@@@@@########################################@@@@@@@@@@@@@@@@########################################@@@@@@@@        ",
"        @@@@@@@@########################################@@@@@@@@@@@@@@@@########################################@@@@@@@@        ",
"        @@@@@@@@########################################@@@@@@@@@@@@@@@@########################################@@@@@@@@        ",
"        @@@@@@@@########################################@@@@@@@@@@@@@@@@########################################@@@@@@@@        ",
"        @@@@@@@@########################################@@@@@@@@@@@@@@@@########################################@@@@@@@@        ",
"        @@@@@@@@########################################@@@@@@@@@@@@@@@@########################################@@@@@@@@        ",
"        @@@@@@@@########################################@@@@@@@@@@@@@@@@########################################@@@@@@@@        ",
"        @@@@@@@@########################################@@@@@@@@@@@@@@@@@@@@@@@@########################@@@@@@@@@@@@@@@@        ",
"        @@@@@@@@########################################@@@@@@@@@@@@@@@@@@@@@@@@########################@@@@@@@@@@@@@@@@        ",
"        @@@@@@@@########################################@@@@@@@@@@@@@@@@@@@@@@@@########################@@@@@@@@@@@@@@@@        ",
"        @@@@@@@@########################################@@@@@@@@@@@@@@@@@@@@@@@@########################@@@@@@@@@@@@@@@@        ",
"        @@@@@@@@########################################@@@@@@@@@@@@@@@@@@@@@@@@########################@@@@@@@@@@@@@@@@        ",
"        @@@@@@@@########################################@@@@@@@@@@@@@@@@@@@@@@@@########################@@@@@@@@@@@@@@@@        ",
"        @@@@@@@@########################################@@@@@@@@@@@@@@@@@@@@@@@@########################@@@@@@@@@@@@@@@@        ",
"        @@@@@@@@########################################@@@@@@@@@@@@@@@@@@@@@@@@########################@@@@@@@@@@@@@@@@        ",
"        @@@@@@@@########################################@@@@@@@@@@@@@@@@@@@@@@@@@@@@@@@@########@@@@@@@@@@@@@@@@@@@@@@@@        ",
"        @@@@@@@@########################################@@@@@@@@@@@@@@@@@@@@@@@@@@@@@@@@########@@@@@@@@@@@@@@@@@@@@@@@@        ",
"        @@@@@@@@########################################@@@@@@@@@@@@@@@@@@@@@@@@@@@@@@@@########@@@@@@@@@@@@@@@@@@@@@@@@        ",
"        @@@@@@@@########################################@@@@@@@@@@@@@@@@@@@@@@@@@@@@@@@@########@@@@@@@@@@@@@@@@@@@@@@@@        ",
"        @@@@@@@@########################################@@@@@@@@@@@@@@@@@@@@@@@@@@@@@@@@########@@@@@@@@@@@@@@@@@@@@@@@@        ",
"        @@@@@@@@########################################@@@@@@@@@@@@@@@@@@@@@@@@@@@@@@@@########@@@@@@@@@@@@@@@@@@@@@@@@        ",
"        @@@@@@@@########################################@@@@@@@@@@@@@@@@@@@@@@@@@@@@@@@@########@@@@@@@@@@@@@@@@@@@@@@@@        ",
"        @@@@@@@@########################################@@@@@@@@@@@@@@@@@@@@@@@@@@@@@@@@########@@@@@@@@@@@@@@@@@@@@@@@@        ",
"        @@@@@@@@@@@@@@@@@@@@@@@@@@@@@@@@@@@@@@@@@@@@@@@@@@@@@@@@@@@@@@@@@@@@@@@@@@@@@@@@@@@@@@@@@@@@@@@@@@@@@@@@@@@@@@@@        ",
"        @@@@@@@@@@@@@@@@@@@@@@@@@@@@@@@@@@@@@@@@@@@@@@@@@@@@@@@@@@@@@@@@@@@@@@@@@@@@@@@@@@@@@@@@@@@@@@@@@@@@@@@@@@@@@@@@        ",
"        @@@@@@@@@@@@@@@@@@@@@@@@@@@@@@@@@@@@@@@@@@@@@@@@@@@@@@@@@@@@@@@@@@@@@@@@@@@@@@@@@@@@@@@@@@@@@@@@@@@@@@@@@@@@@@@@        ",
"        @@@@@@@@@@@@@@@@@@@@@@@@@@@@@@@@@@@@@@@@@@@@@@@@@@@@@@@@@@@@@@@@@@@@@@@@@@@@@@@@@@@@@@@@@@@@@@@@@@@@@@@@@@@@@@@@        ",
"        @@@@@@@@@@@@@@@@@@@@@@@@@@@@@@@@@@@@@@@@@@@@@@@@@@@@@@@@@@@@@@@@@@@@@@@@@@@@@@@@@@@@@@@@@@@@@@@@@@@@@@@@@@@@@@@@        ",
"        @@@@@@@@@@@@@@@@@@@@@@@@@@@@@@@@@@@@@@@@@@@@@@@@@@@@@@@@@@@@@@@@@@@@@@@@@@@@@@@@@@@@@@@@@@@@@@@@@@@@@@@@@@@@@@@@        ",
"        @@@@@@@@@@@@@@@@@@@@@@@@@@@@@@@@@@@@@@@@@@@@@@@@@@@@@@@@@@@@@@@@@@@@@@@@@@@@@@@@@@@@@@@@@@@@@@@@@@@@@@@@@@@@@@@@        ",
"        @@@@@@@@@@@@@@@@@@@@@@@@@@@@@@@@@@@@@@@@@@@@@@@@@@@@@@@@@@@@@@@@@@@@@@@@@@@@@@@@@@@@@@@@@@@@@@@@@@@@@@@@@@@@@@@@        ",
"                                                                                                                                ",
"                                                                                                                                ",
"                                                                                                                                ",
"                                                                                                                                ",
"                                                                                                                                ",
"                                                                                                                                ",
"                                                                                                                                ",
"                                                                                                                                "};
