/* XPM */
static char * save_11x11_xpm[] = {
"128 128 4 1",
" 	c None",
".	c #426295",
"+	c #2B4062",
"@	c #9B9B9B",
"................++++++++++++++++@@@@@@@@@@@@@@@@@@@@@@@@@@@@@@@@@@@@@@@@@@@@@@@@@@@@@@@@@@@@@@@@@@@@@@@@........                ",
"................++++++++++++++++@@@@@@@@@@@@@@@@@@@@@@@@@@@@@@@@@@@@@@@@@@@@@@@@@@@@@@@@@@@@@@@@@@@@@@@@........                ",
"................++++++++++++++++@@@@@@@@@@@@@@@@@@@@@@@@@@@@@@@@@@@@@@@@@@@@@@@@@@@@@@@@@@@@@@@@@@@@@@@@........                ",
"................++++++++++++++++@@@@@@@@@@@@@@@@@@@@@@@@@@@@@@@@@@@@@@@@@@@@@@@@@@@@@@@@@@@@@@@@@@@@@@@@........                ",
"................++++++++++++++++@@@@@@@@@@@@@@@@@@@@@@@@@@@@@@@@@@@@@@@@@@@@@@@@@@@@@@@@@@@@@@@@@@@@@@@@........                ",
"................++++++++++++++++@@@@@@@@@@@@@@@@@@@@@@@@@@@@@@@@@@@@@@@@@@@@@@@@@@@@@@@@@@@@@@@@@@@@@@@@........                ",
"................++++++++++++++++@@@@@@@@@@@@@@@@@@@@@@@@@@@@@@@@@@@@@@@@@@@@@@@@@@@@@@@@@@@@@@@@@@@@@@@@........                ",
"................++++++++++++++++@@@@@@@@@@@@@@@@@@@@@@@@@@@@@@@@@@@@@@@@@@@@@@@@@@@@@@@@@@@@@@@@@@@@@@@@........                ",
"................++++++++++++++++@@@@@@@@@@@@@@@@@@@@@@@@@@@@@@@@@@@@@@@@@@@@@@@@++++++++++++++++@@@@@@@@................        ",
"................++++++++++++++++@@@@@@@@@@@@@@@@@@@@@@@@@@@@@@@@@@@@@@@@@@@@@@@@++++++++++++++++@@@@@@@@................        ",
"................++++++++++++++++@@@@@@@@@@@@@@@@@@@@@@@@@@@@@@@@@@@@@@@@@@@@@@@@++++++++++++++++@@@@@@@@................        ",
"................++++++++++++++++@@@@@@@@@@@@@@@@@@@@@@@@@@@@@@@@@@@@@@@@@@@@@@@@++++++++++++++++@@@@@@@@................        ",
"................++++++++++++++++@@@@@@@@@@@@@@@@@@@@@@@@@@@@@@@@@@@@@@@@@@@@@@@@++++++++++++++++@@@@@@@@................        ",
"................++++++++++++++++@@@@@@@@@@@@@@@@@@@@@@@@@@@@@@@@@@@@@@@@@@@@@@@@++++++++++++++++@@@@@@@@................        ",
"................++++++++++++++++@@@@@@@@@@@@@@@@@@@@@@@@@@@@@@@@@@@@@@@@@@@@@@@@++++++++++++++++@@@@@@@@................        ",
"................++++++++++++++++@@@@@@@@@@@@@@@@@@@@@@@@@@@@@@@@@@@@@@@@@@@@@@@@++++++++++++++++@@@@@@@@................        ",
"................++++++++++++++++@@@@@@@@@@@@@@@@@@@@@@@@@@@@@@@@@@@@@@@@@@@@@@@@++++++++++++++++@@@@@@@@........................",
"................++++++++++++++++@@@@@@@@@@@@@@@@@@@@@@@@@@@@@@@@@@@@@@@@@@@@@@@@++++++++++++++++@@@@@@@@........................",
"................++++++++++++++++@@@@@@@@@@@@@@@@@@@@@@@@@@@@@@@@@@@@@@@@@@@@@@@@++++++++++++++++@@@@@@@@........................",
"................++++++++++++++++@@@@@@@@@@@@@@@@@@@@@@@@@@@@@@@@@@@@@@@@@@@@@@@@++++++++++++++++@@@@@@@@........................",
"................++++++++++++++++@@@@@@@@@@@@@@@@@@@@@@@@@@@@@@@@@@@@@@@@@@@@@@@@++++++++++++++++@@@@@@@@........................",
"................++++++++++++++++@@@@@@@@@@@@@@@@@@@@@@@@@@@@@@@@@@@@@@@@@@@@@@@@++++++++++++++++@@@@@@@@........................",
"................++++++++++++++++@@@@@@@@@@@@@@@@@@@@@@@@@@@@@@@@@@@@@@@@@@@@@@@@++++++++++++++++@@@@@@@@........................",
"................++++++++++++++++@@@@@@@@@@@@@@@@@@@@@@@@@@@@@@@@@@@@@@@@@@@@@@@@++++++++++++++++@@@@@@@@........................",
"................++++++++++++++++@@@@@@@@@@@@@@@@@@@@@@@@@@@@@@@@@@@@@@@@@@@@@@@@++++++++++++++++@@@@@@@@........................",
"................++++++++++++++++@@@@@@@@@@@@@@@@@@@@@@@@@@@@@@@@@@@@@@@@@@@@@@@@++++++++++++++++@@@@@@@@........................",
"................++++++++++++++++@@@@@@@@@@@@@@@@@@@@@@@@@@@@@@@@@@@@@@@@@@@@@@@@++++++++++++++++@@@@@@@@........................",
"................++++++++++++++++@@@@@@@@@@@@@@@@@@@@@@@@@@@@@@@@@@@@@@@@@@@@@@@@++++++++++++++++@@@@@@@@........................",
"................++++++++++++++++@@@@@@@@@@@@@@@@@@@@@@@@@@@@@@@@@@@@@@@@@@@@@@@@++++++++++++++++@@@@@@@@........................",
"................++++++++++++++++@@@@@@@@@@@@@@@@@@@@@@@@@@@@@@@@@@@@@@@@@@@@@@@@++++++++++++++++@@@@@@@@........................",
"................++++++++++++++++@@@@@@@@@@@@@@@@@@@@@@@@@@@@@@@@@@@@@@@@@@@@@@@@++++++++++++++++@@@@@@@@........................",
"................++++++++++++++++@@@@@@@@@@@@@@@@@@@@@@@@@@@@@@@@@@@@@@@@@@@@@@@@++++++++++++++++@@@@@@@@........................",
"................++++++++++++++++++++++++@@@@@@@@@@@@@@@@@@@@@@@@@@@@@@@@@@@@@@@@@@@@@@@@@@@@@@@@@@@@@@@@........................",
"................++++++++++++++++++++++++@@@@@@@@@@@@@@@@@@@@@@@@@@@@@@@@@@@@@@@@@@@@@@@@@@@@@@@@@@@@@@@@........................",
"................++++++++++++++++++++++++@@@@@@@@@@@@@@@@@@@@@@@@@@@@@@@@@@@@@@@@@@@@@@@@@@@@@@@@@@@@@@@@........................",
"................++++++++++++++++++++++++@@@@@@@@@@@@@@@@@@@@@@@@@@@@@@@@@@@@@@@@@@@@@@@@@@@@@@@@@@@@@@@@........................",
"................++++++++++++++++++++++++@@@@@@@@@@@@@@@@@@@@@@@@@@@@@@@@@@@@@@@@@@@@@@@@@@@@@@@@@@@@@@@@........................",
"................++++++++++++++++++++++++@@@@@@@@@@@@@@@@@@@@@@@@@@@@@@@@@@@@@@@@@@@@@@@@@@@@@@@@@@@@@@@@........................",
"................++++++++++++++++++++++++@@@@@@@@@@@@@@@@@@@@@@@@@@@@@@@@@@@@@@@@@@@@@@@@@@@@@@@@@@@@@@@@........................",
"................++++++++++++++++++++++++@@@@@@@@@@@@@@@@@@@@@@@@@@@@@@@@@@@@@@@@@@@@@@@@@@@@@@@@@@@@@@@@........................",
"................................................................................................................................",
"................................................................................................................................",
"................................................................................................................................",
"................................................................................................................................",
"................................................................................................................................",
"................................................................................................................................",
"................................................................................................................................",
"................................................................................................................................",
"................................................................................................................................",
"................................................................................................................................",
"................................................................................................................................",
"................................................................................................................................",
"................................................................................................................................",
"................................................................................................................................",
"................................................................................................................................",
"................................................................................................................................",
"........................++++++++++++++++++++++++++++++++++++++++++++++++++++++++++++++++++++++++................................",
"........................++++++++++++++++++++++++++++++++++++++++++++++++++++++++++++++++++++++++................................",
"........................++++++++++++++++++++++++++++++++++++++++++++++++++++++++++++++++++++++++................................",
"........................++++++++++++++++++++++++++++++++++++++++++++++++++++++++++++++++++++++++................................",
"........................++++++++++++++++++++++++++++++++++++++++++++++++++++++++++++++++++++++++................................",
"........................++++++++++++++++++++++++++++++++++++++++++++++++++++++++++++++++++++++++................................",
"........................++++++++++++++++++++++++++++++++++++++++++++++++++++++++++++++++++++++++................................",
"........................++++++++++++++++++++++++++++++++++++++++++++++++++++++++++++++++++++++++................................",
"................++++++++++++++++++++++++++++++++++++++++++++++++++++++++++++++++++++++++++++++++++++++++........................",
"................++++++++++++++++++++++++++++++++++++++++++++++++++++++++++++++++++++++++++++++++++++++++........................",
"................++++++++++++++++++++++++++++++++++++++++++++++++++++++++++++++++++++++++++++++++++++++++........................",
"................++++++++++++++++++++++++++++++++++++++++++++++++++++++++++++++++++++++++++++++++++++++++........................",
"................++++++++++++++++++++++++++++++++++++++++++++++++++++++++++++++++++++++++++++++++++++++++........................",
"................++++++++++++++++++++++++++++++++++++++++++++++++++++++++++++++++++++++++++++++++++++++++........................",
"................++++++++++++++++++++++++++++++++++++++++++++++++++++++++++++++++++++++++++++++++++++++++........................",
"................++++++++++++++++++++++++++++++++++++++++++++++++++++++++++++++++++++++++++++++++++++++++........................",
"................++++++++++++++++++++++++++++++++++++++++++++++++++++++++++++++++++++++++++++++++++++++++........................",
"................++++++++++++++++++++++++++++++++++++++++++++++++++++++++++++++++++++++++++++++++++++++++........................",
"................++++++++++++++++++++++++++++++++++++++++++++++++++++++++++++++++++++++++++++++++++++++++........................",
"................++++++++++++++++++++++++++++++++++++++++++++++++++++++++++++++++++++++++++++++++++++++++........................",
"................++++++++++++++++++++++++++++++++++++++++++++++++++++++++++++++++++++++++++++++++++++++++........................",
"................++++++++++++++++++++++++++++++++++++++++++++++++++++++++++++++++++++++++++++++++++++++++........................",
"................++++++++++++++++++++++++++++++++++++++++++++++++++++++++++++++++++++++++++++++++++++++++........................",
"................++++++++++++++++++++++++++++++++++++++++++++++++++++++++++++++++++++++++++++++++++++++++........................",
"................++++++++++++++++++++++++++++++++++++++++++++++++++++++++++++++++++++++++++++++++++++++++........................",
"................++++++++++++++++++++++++++++++++++++++++++++++++++++++++++++++++++++++++++++++++++++++++........................",
"................++++++++++++++++++++++++++++++++++++++++++++++++++++++++++++++++++++++++++++++++++++++++........................",
"................++++++++++++++++++++++++++++++++++++++++++++++++++++++++++++++++++++++++++++++++++++++++........................",
"................++++++++++++++++++++++++++++++++++++++++++++++++++++++++++++++++++++++++++++++++++++++++........................",
"................++++++++++++++++++++++++++++++++++++++++++++++++++++++++++++++++++++++++++++++++++++++++........................",
"................++++++++++++++++++++++++++++++++++++++++++++++++++++++++++++++++++++++++++++++++++++++++........................",
"................++++++++++++++++++++++++++++++++++++++++++++++++++++++++++++++++++++++++++++++++++++++++........................",
"................++++++++++++++++++++++++++++++++++++++++++++++++++++++++++++++++++++++++++++++++++++++++........................",
"................++++++++++++++++++++++++++++++++++++++++++++++++++++++++++++++++++++++++++++++++++++++++........................",
"................++++++++++++++++++++++++++++++++++++++++++++++++++++++++++++++++++++++++++++++++++++++++........................",
"................++++++++++++++++++++++++++++++++++++++++++++++++++++++++++++++++++++++++++++++++++++++++........................",
"................++++++++++++++++++++++++++++++++++++++++++++++++++++++++++++++++++++++++++++++++++++++++........................",
"................++++++++++++++++++++++++++++++++++++++++++++++++++++++++++++++++++++++++++++++++++++++++........................",
"................++++++++++++++++++++++++++++++++++++++++++++++++++++++++++++++++++++++++++++++++++++++++........................",
"................++++++++++++++++++++++++++++++++++++++++++++++++++++++++++++++++++++++++++++++++++++++++........................",
"................++++++++++++++++++++++++++++++++++++++++++++++++++++++++++++++++++++++++++++++++++++++++........................",
"................++++++++++++++++++++++++++++++++++++++++++++++++++++++++++++++++++++++++++++++++++++++++........................",
"................++++++++++++++++++++++++++++++++++++++++++++++++++++++++++++++++++++++++++++++++++++++++........................",
"................++++++++++++++++++++++++++++++++++++++++++++++++++++++++++++++++++++++++++++++++++++++++........................",
"................++++++++++++++++++++++++++++++++++++++++++++++++++++++++++++++++++++++++++++++++++++++++........................",
"................++++++++++++++++++++++++++++++++++++++++++++++++++++++++++++++++++++++++++++++++++++++++........................",
"................++++++++++++++++++++++++++++++++++++++++++++++++++++++++++++++++++++++++++++++++++++++++........................",
"................++++++++++++++++++++++++++++++++++++++++++++++++++++++++++++++++++++++++++++++++++++++++........................",
"................++++++++++++++++++++++++++++++++++++++++++++++++++++++++++++++++++++++++++++++++++++++++........................",
"................++++++++++++++++++++++++++++++++++++++++++++++++++++++++++++++++++++++++++++++++++++++++........................",
"................++++++++++++++++++++++++++++++++++++++++++++++++++++++++++++++++++++++++++++++++++++++++........................",
"................++++++++++++++++++++++++++++++++++++++++++++++++++++++++++++++++++++++++++++++++++++++++........................",
"................++++++++++++++++++++++++++++++++++++++++++++++++++++++++++++++++++++++++++++++++++++++++........................",
"................++++++++++++++++++++++++++++++++++++++++++++++++++++++++++++++++++++++++++++++++++++++++........................",
"................++++++++++++++++++++++++++++++++++++++++++++++++++++++++++++++++++++++++++++++++++++++++........................",
"................++++++++++++++++++++++++++++++++++++++++++++++++++++++++++++++++++++++++++++++++++++++++........................",
"................++++++++++++++++++++++++++++++++++++++++++++++++++++++++++++++++++++++++++++++++++++++++........................",
"................++++++++++++++++++++++++++++++++++++++++++++++++++++++++++++++++++++++++++++++++++++++++........................",
"................++++++++++++++++++++++++++++++++++++++++++++++++++++++++++++++++++++++++++++++++++++++++........................",
"................++++++++++++++++++++++++++++++++++++++++++++++++++++++++++++++++++++++++++++++++++++++++........................",
"................++++++++++++++++++++++++++++++++++++++++++++++++++++++++++++++++++++++++++++++++++++++++........................",
"................++++++++++++++++++++++++++++++++++++++++++++++++++++++++++++++++++++++++++++++++++++++++........................",
"................++++++++++++++++++++++++++++++++++++++++++++++++++++++++++++++++++++++++++++++++++++++++........................",
"................++++++++++++++++++++++++++++++++++++++++++++++++++++++++++++++++++++++++++++++++++++++++........................",
"................++++++++++++++++++++++++++++++++++++++++++++++++++++++++++++++++++++++++++++++++++++++++........................",
"................++++++++++++++++++++++++++++++++++++++++++++++++++++++++++++++++++++++++++++++++++++++++........................",
"................++++++++++++++++++++++++++++++++++++++++++++++++++++++++++++++++++++++++++++++++++++++++........................",
"................++++++++++++++++++++++++++++++++++++++++++++++++++++++++++++++++++++++++++++++++++++++++........................",
"................++++++++++++++++++++++++++++++++++++++++++++++++++++++++++++++++++++++++++++++++++++++++........................",
"................++++++++++++++++++++++++++++++++++++++++++++++++++++++++++++++++++++++++++++++++++++++++........................",
"................++++++++++++++++++++++++++++++++++++++++++++++++++++++++++++++++++++++++++++++++++++++++........................",
"................++++++++++++++++++++++++++++++++++++++++++++++++++++++++++++++++++++++++++++++++++++++++........................"};
