/* XPM */
static char * utilities_terminal_11x11_xpm[] = {
"128 128 5 1",
" 	c None",
".	c #2F2F2F",
"+	c #FFFFFF",
"@	c #A2A2A2",
"#	c #9F9F9F",
"                ................................................................................................                ",
"                ................................................................................................                ",
"                ................................................................................................                ",
"                ................................................................................................                ",
"                ................................................................................................                ",
"                ................................................................................................                ",
"                ................................................................................................                ",
"                ................................................................................................                ",
"        ................................................................................................................        ",
"        ................................................................................................................        ",
"        ................................................................................................................        ",
"        ................................................................................................................        ",
"        ................................................................................................................        ",
"        ................................................................................................................        ",
"        ................................................................................................................        ",
"        ................................................................................................................        ",
"................................................................................................................................",
"................................................................................................................................",
"................................................................................................................................",
"................................................................................................................................",
"................................................................................................................................",
"................................................................................................................................",
"................................................................................................................................",
"................................................................................................................................",
"................................................................................................................................",
"................................................................................................................................",
"................................................................................................................................",
"................................................................................................................................",
"................................................................................................................................",
"................................................................................................................................",
"................................................................................................................................",
"................................................................................................................................",
"................................................................................................................................",
"................................................................................................................................",
"................................................................................................................................",
"................................................................................................................................",
"................................................................................................................................",
"................................................................................................................................",
"................................................................................................................................",
"................................................................................................................................",
"................++++++++++++++++................................................................................................",
"................++++++++++++++++................................................................................................",
"................++++++++++++++++................................................................................................",
"................++++++++++++++++................................................................................................",
"................++++++++++++++++................................................................................................",
"................++++++++++++++++................................................................................................",
"................++++++++++++++++................................................................................................",
"................++++++++++++++++................................................................................................",
"................++++++++++++++++++++++++........................................................................................",
"................++++++++++++++++++++++++........................................................................................",
"................++++++++++++++++++++++++........................................................................................",
"................++++++++++++++++++++++++........................................................................................",
"................++++++++++++++++++++++++........................................................................................",
"................++++++++++++++++++++++++........................................................................................",
"................++++++++++++++++++++++++........................................................................................",
"................++++++++++++++++++++++++........................................................................................",
"........................++++++++++++++++++++++++................................................................................",
"........................++++++++++++++++++++++++................................................................................",
"........................++++++++++++++++++++++++................................................................................",
"........................++++++++++++++++++++++++................................................................................",
"........................++++++++++++++++++++++++................................................................................",
"........................++++++++++++++++++++++++................................................................................",
"........................++++++++++++++++++++++++................................................................................",
"........................++++++++++++++++++++++++................................................................................",
"................................++++++++++++++++++++++++........................................................................",
"................................++++++++++++++++++++++++........................................................................",
"................................++++++++++++++++++++++++........................................................................",
"................................++++++++++++++++++++++++........................................................................",
"................................++++++++++++++++++++++++........................................................................",
"................................++++++++++++++++++++++++........................................................................",
"................................++++++++++++++++++++++++........................................................................",
"................................++++++++++++++++++++++++........................................................................",
"........................@@@@@@@@################................................................................................",
"........................@@@@@@@@################................................................................................",
"........................@@@@@@@@################................................................................................",
"........................@@@@@@@@################................................................................................",
"........................@@@@@@@@################................................................................................",
"........................@@@@@@@@################................................................................................",
"........................@@@@@@@@################................................................................................",
"........................@@@@@@@@################................................................................................",
"................########@@@@@@@@########................++++++++++++++++++++++++++++++++++++++++++++++++........................",
"................########@@@@@@@@########................++++++++++++++++++++++++++++++++++++++++++++++++........................",
"................########@@@@@@@@########................++++++++++++++++++++++++++++++++++++++++++++++++........................",
"................########@@@@@@@@########................++++++++++++++++++++++++++++++++++++++++++++++++........................",
"................########@@@@@@@@########................++++++++++++++++++++++++++++++++++++++++++++++++........................",
"................########@@@@@@@@########................++++++++++++++++++++++++++++++++++++++++++++++++........................",
"................########@@@@@@@@########................++++++++++++++++++++++++++++++++++++++++++++++++........................",
"................########@@@@@@@@########................++++++++++++++++++++++++++++++++++++++++++++++++........................",
"................################........................++++++++++++++++++++++++++++++++++++++++++++++++........................",
"................################........................++++++++++++++++++++++++++++++++++++++++++++++++........................",
"................################........................++++++++++++++++++++++++++++++++++++++++++++++++........................",
"................################........................++++++++++++++++++++++++++++++++++++++++++++++++........................",
"................################........................++++++++++++++++++++++++++++++++++++++++++++++++........................",
"................################........................++++++++++++++++++++++++++++++++++++++++++++++++........................",
"................################........................++++++++++++++++++++++++++++++++++++++++++++++++........................",
"................################........................++++++++++++++++++++++++++++++++++++++++++++++++........................",
"................................................................................................................................",
"................................................................................................................................",
"................................................................................................................................",
"................................................................................................................................",
"................................................................................................................................",
"................................................................................................................................",
"................................................................................................................................",
"................................................................................................................................",
"................................................................................................................................",
"................................................................................................................................",
"................................................................................................................................",
"................................................................................................................................",
"................................................................................................................................",
"................................................................................................................................",
"................................................................................................................................",
"................................................................................................................................",
"        ................................................................................................................        ",
"        ................................................................................................................        ",
"        ................................................................................................................        ",
"        ................................................................................................................        ",
"        ................................................................................................................        ",
"        ................................................................................................................        ",
"        ................................................................................................................        ",
"        ................................................................................................................        ",
"                ................................................................................................                ",
"                ................................................................................................                ",
"                ................................................................................................                ",
"                ................................................................................................                ",
"                ................................................................................................                ",
"                ................................................................................................                ",
"                ................................................................................................                ",
"                ................................................................................................                "};
