/* XPM */
static char * start_xpm[] = {
"41 22 2 1",
" 	c #0A0A0A",
".	c #5F5F5F",
"                                         ",
"                                         ",
"           ........    ........          ",
"           ........    ........          ",
"           ........    ........          ",
"           ........    ........          ",
"           ........    ........          ",
"           ........    ........          ",
"           ........    ........          ",
"           ........    ........          ",
"                                         ",
"                                         ",
"                                         ",
"           ........    ........          ",
"           ........    ........          ",
"           ........    ........          ",
"           ........    ........          ",
"           ........    ........          ",
"           ........    ........          ",
"           ........    ........          ",
"           ........    ........          ",
"                                         "};
