/* XPM */
static char * windows_xpm[] = {
"17 17 25 1",
" 	c #2F2F2F",
".	c #8EA775",
"+	c #8FA776",
"@	c #546048",
"#	c #505050",
"$	c #666666",
"%	c #494949",
"&	c #5C5C5C",
"*	c #6C2828",
"=	c #C00101",
"-	c #8FA876",
";	c #515151",
">	c #4A4A4A",
",	c #C10000",
"'	c #3A3F36",
")	c #393939",
"!	c #424242",
"~	c #373737",
"{	c #3E3E3E",
"]	c #442D2D",
"^	c #222222",
"/	c #202020",
"(	c #1C1C1C",
"_	c #181818",
":	c #1F1F1F",
"                 ",
" .+@   #$#%$&*== ",
" +-@   ;$;>$&*,= ",
" @@'   )!)~!{]** ",
"                 ",
"  ^///////////^  ",
"  (___________(  ",
"  (___________(  ",
"  (___________(  ",
"  (___________(  ",
"  (___________(  ",
"  (___________(  ",
"  (___________(  ",
"  (___________(  ",
"  :(((((((((((:  ",
"                 ",
"                 "};
