/* XPM */
static char * desktop_xpm[] = {
"20 20 106 2",
"  	c None",
". 	c #8B6F57",
"+ 	c #8B6D55",
"@ 	c #8D6E55",
"# 	c #8F6F55",
"$ 	c #907056",
"% 	c #917156",
"& 	c #937256",
"* 	c #957356",
"= 	c #977457",
"- 	c #987557",
"; 	c #9A7657",
"> 	c #9C7757",
", 	c #9E7857",
"' 	c #9F7958",
") 	c #A07A58",
"! 	c #A27B58",
"~ 	c #A47C58",
"{ 	c #A77E5B",
"] 	c #81644A",
"^ 	c #83654B",
"/ 	c #85664B",
"( 	c #87674B",
"_ 	c #88674B",
": 	c #8A684C",
"< 	c #8C694C",
"[ 	c #8E6A4C",
"} 	c #8F6B4C",
"| 	c #916C4D",
"1 	c #936D4D",
"2 	c #956E4D",
"3 	c #966F4D",
"4 	c #98704E",
"5 	c #9A714E",
"6 	c #9C724E",
"7 	c #9D734E",
"8 	c #9F744F",
"9 	c #80634A",
"0 	c #82644A",
"a 	c #89684B",
"b 	c #8B694C",
"c 	c #8C6A4C",
"d 	c #8E6B4C",
"e 	c #906C4C",
"f 	c #926D4D",
"g 	c #936E4D",
"h 	c #956F4D",
"i 	c #97704D",
"j 	c #99704E",
"k 	c #9E734E",
"l 	c #7F624A",
"m 	c #82644B",
"n 	c #84654B",
"o 	c #86664B",
"p 	c #89684C",
"q 	c #8D6A4C",
"r 	c #946E4D",
"s 	c #99714E",
"t 	c #9B724E",
"u 	c #7D624A",
"v 	c #81634A",
"w 	c #83644B",
"x 	c #7C614A",
"y 	c #7E624A",
"z 	c #88684B",
"A 	c #8A694C",
"B 	c #906B4C",
"C 	c #976F4D",
"D 	c #7B604A",
"E 	c #7D614A",
"F 	c #7A5F49",
"G 	c #98704D",
"H 	c #785F49",
"I 	c #7A6049",
"J 	c #7F634A",
"K 	c #775E49",
"L 	c #795F49",
"M 	c #7B6049",
"N 	c #785E49",
"O 	c #AC9C8E",
"P 	c #C4B9AF",
"Q 	c #BAAB9F",
"R 	c #C7BBB0",
"S 	c #B29E8E",
"T 	c #917E6E",
"U 	c #9E8F82",
"V 	c #988878",
"W 	c #998879",
"X 	c #A19183",
"Y 	c #97816E",
"Z 	c #5D4939",
"` 	c #5F4B3A",
" .	c #614C3A",
"..	c #624D3B",
"+.	c #644E3B",
"@.	c #654E3B",
"#.	c #664F3B",
"$.	c #68503B",
"%.	c #6A513C",
"&.	c #6A523C",
"*.	c #6C523C",
"=.	c #6E533C",
"-.	c #6F543D",
";.	c #70553D",
">.	c #72563D",
",.	c #70543B",
"                                        ",
"                                        ",
"                                        ",
"  . + @ # $ % & * = - ; > , ' ) ! ~ {   ",
"  ] ^ / ( _ : < [ } | 1 2 3 4 5 6 7 8   ",
"  9 0 ^ / ( a b c d e f g h i j 5 6 k   ",
"  l 9 m n o _ p b q } e f r 3 i s t 7   ",
"  u l v w n o _ : < q } | 1 r 3 4 5 t   ",
"  x y 9 ] ^ / ( z A c d B | 1 2 C 4 5   ",
"  D E y 9 0 n / ( a b q d e f r h i s   ",
"  F D E l v m n o _ p b q } | f r 3 G   ",
"  H I x y J ] ^ / o _ : < [ } | 1 2 3   ",
"  K L M x y 9 0 ^ / ( a A c d e f g h   ",
"  K N L D E l 9 m n o ( p b q } e f r   ",
"  K K H I x E O P Q Q R S : b q } | 1   ",
"  K K K L I x T U V W X Y z A c [ B |   ",
"  Z ` ` `  ...+.@.#.$.%.&.*.=.-.;.>.,.  ",
"                                        ",
"                                        ",
"                                        "};
