/* XPM */
static char * closeO_xpm[] = {
"24 54 35 1",
" 	c #12131D",
".	c #822430",
"+	c #CA343D",
"@	c #E43B43",
"#	c #E43C43",
"$	c #C9343D",
"%	c #812430",
"&	c #5C222D",
"*	c #E33B42",
"=	c #EE5353",
"-	c #E23C43",
";	c #5B222C",
">	c #EE4F51",
",	c #EE4C4E",
"'	c #D94748",
")	c #C13F40",
"!	c #DA4849",
"~	c #E23B42",
"{	c #28080B",
"]	c #B1393A",
"^	c #B2393A",
"/	c #802530",
"(	c #B53B3C",
"_	c #AF3839",
":	c #B43A3B",
"<	c #C8343D",
"[	c #E43C44",
"}	c #E33B43",
"|	c #27080B",
"1	c #7F2531",
"2	c #E13B42",
"3	c #EE4C4F",
"4	c #59222D",
"5	c #C8333D",
"6	c #E33C43",
"                        ",
"                        ",
"                        ",
"                        ",
"                        ",
"                        ",
"         .+@#$%         ",
"       &*======-;       ",
"      &>========,;      ",
"      *=')====)!=~      ",
"     .==){]==^{)==/     ",
"     +===({_:{_===<     ",
"     [====^{{^====}     ",
"     *====^||^====-     ",
"     +===:{_:{_===<     ",
"     %==)|]==^{)==1     ",
"      -=!)====)!=2      ",
"      ;,========34      ",
"       ;-======24       ",
"         /56651         ",
"                        ",
"                        ",
"                        ",
"                        ",
"                        ",
"                        ",
"                        ",
"                        ",
"                        ",
"                        ",
"                        ",
"                        ",
"                        ",
"         .+@#$%         ",
"       &*======-;       ",
"      &>========,;      ",
"      *=')====)!=~      ",
"     .==){]==^{)==/     ",
"     +===({_:{_===<     ",
"     [====^{{^====}     ",
"     *====^||^====-     ",
"     +===:{_:{_===<     ",
"     %==)|]==^{)==1     ",
"      -=!)====)!=2      ",
"      ;,========34      ",
"       ;-======24       ",
"         /56651         ",
"                        ",
"                        ",
"                        ",
"                        ",
"                        ",
"                        ",
"                        "};
