/* XPM */
static char * maximizeO_xpm[] = {
"24 54 34 1",
" 	c #12131D",
".	c #1B7827",
"+	c #26BD3C",
"@	c #75C37D",
"#	c #26BC3C",
"$	c #1B7726",
"%	c #1A5625",
"&	c #75C47D",
"*	c #2ED648",
"=	c #3AE55A",
"-	c #2FD647",
";	c #34AF50",
">	c #227B32",
",	c #237E34",
"'	c #2ED547",
")	c #165B20",
"!	c #032702",
"~	c #248136",
"{	c #1B7725",
"]	c #26BD3B",
"^	c #34AD4F",
"/	c #237D33",
"(	c #27BC3B",
"_	c #14571E",
":	c #175E21",
"<	c #15581E",
"[	c #35B051",
"}	c #34AC4F",
"|	c #2ED446",
"1	c #3AE559",
"2	c #1A5426",
"3	c #2ED548",
"4	c #27BC3C",
"5	c #3AE65A",
"                        ",
"                        ",
"                        ",
"                        ",
"                        ",
"                        ",
"         .+@@#$         ",
"       %@&&&&&&*%       ",
"      %@&&&&&&&&=%      ",
"      -&&&;>>>,@&'      ",
"     .&&&&&)!!!~&&{     ",
"     ]&&^&&&)!!/&&(     ",
"     @&&/_&&&:!/&&@     ",
"     @&&/!_&&&:/&&@     ",
"     ]&&/!!<&&&[&&(     ",
"     $&&~!!!<&&&&&$     ",
"      *&@,>>>}&&&|      ",
"      %=&&&&&&&&12      ",
"       %3&&&&&&|2       ",
"         {4@@4$         ",
"                        ",
"                        ",
"                        ",
"                        ",
"                        ",
"                        ",
"                        ",
"                        ",
"                        ",
"                        ",
"                        ",
"                        ",
"                        ",
"         .+@@#$         ",
"       %-@@@@@@*%       ",
"      %5@@@@@@@@=%      ",
"      -@@@;>>>,@@'      ",
"     .@@@@@)!!!~@@{     ",
"     ]@@^@@@)!!/@@(     ",
"     @@@/_@@@:!/@@@     ",
"     @@@/!_@@@:/@@@     ",
"     ]@@/!!<@@@[@@(     ",
"     $@@~!!!<@@@@@$     ",
"      *@@,>>>}@@@|      ",
"      %=@@@@@@@@12      ",
"       %3@@@@@@|2       ",
"         {4@@4$         ",
"                        ",
"                        ",
"                        ",
"                        ",
"                        ",
"                        ",
"                        "};
