/* XPM */
static char * rollupA_xpm[] = {
"24 54 4 1",
" 	c #12131D",
".	c #6C6D75",
"+	c #70727A",
"@	c #B9BBBF",
"                        ",
"                        ",
"                        ",
"                        ",
"                        ",
"                        ",
"                        ",
"                        ",
"                        ",
"                        ",
"                        ",
"           .+           ",
"          .@@+          ",
"         .@@@@+         ",
"        .@@@@@@+        ",
"                        ",
"                        ",
"                        ",
"                        ",
"                        ",
"                        ",
"                        ",
"                        ",
"                        ",
"                        ",
"                        ",
"                        ",
"                        ",
"                        ",
"                        ",
"                        ",
"                        ",
"                        ",
"                        ",
"                        ",
"                        ",
"                        ",
"                        ",
"           .+           ",
"          .@@+          ",
"         .@@@@+         ",
"        .@@@@@@+        ",
"                        ",
"                        ",
"                        ",
"                        ",
"                        ",
"                        ",
"                        ",
"                        ",
"                        ",
"                        ",
"                        ",
"                        "};
