/* XPM */
static char * closeA_xpm[] = {
"26 58 62 1",
" 	c None",
".	c #23252E",
"+	c #3F232A",
"@	c #861E22",
"#	c #B51B1D",
"$	c #CC1A1A",
"%	c #8A1E22",
"&	c #D11919",
"*	c #D31919",
"=	c #D1191A",
"-	c #891E21",
";	c #A51D1F",
">	c #A51C1E",
",	c #881E22",
"'	c #871E22",
")	c #851E22",
"!	c #B61B1D",
"~	c #CB1A1A",
"{	c #CA1A1A",
"]	c #C91A1B",
"^	c #851F23",
"/	c #3B232B",
"(	c #A41C1E",
"_	c #42222A",
":	c #41232A",
"<	c #28252E",
"[	c #891F22",
"}	c #27252E",
"|	c #FDF7F7",
"1	c #F7D3D3",
"2	c #D83131",
"3	c #D62929",
"4	c #F4C6C6",
"5	c #FFFFFF",
"6	c #D42020",
"7	c #F5CCCC",
"8	c #F9DFDF",
"9	c #D62B2B",
"0	c #F7D4D4",
"a	c #D31A1A",
"b	c #D72C2C",
"c	c #F7D6D6",
"d	c #FAE3E3",
"e	c #D93636",
"f	c #FAE4E4",
"g	c #D93838",
"h	c #D72E2E",
"i	c #F8D8D8",
"j	c #F8DBDB",
"k	c #F9E2E2",
"l	c #D83535",
"m	c #F6CFCF",
"n	c #D73030",
"o	c #F9DEDE",
"p	c #841F23",
"q	c #F6D1D1",
"r	c #F5C9C9",
"s	c #40232A",
"t	c #A31C1E",
"u	c #26242D",
"v	c #D11A1A",
"w	c #B41C1D",
"..........................",
"..........................",
"..........................",
"..........................",
"..........................",
"..........................",
"..........................",
".........+@#$$#@+.........",
"........%&******=-........",
".......;**********>.......",
"......%************,......",
".....+=************=+.....",
".....'**************).....",
".....!**************#.....",
".....~**************{.....",
".....{**************].....",
".....!**************#.....",
".....@**************^.....",
".....+=************=/.....",
"......-************'......",
".......>**********(.......",
"........,=******='........",
".........+)#~~#^/.........",
"..........................",
"..........................",
"..........................",
"..........................",
"..........................",
"..........................",
"..........................",
"..........................",
"..........................",
"..........................",
"..........................",
"..........................",
"..........................",
"........._@#$$#@:.........",
".......<%&******=[}.......",
"......};**********;}......",
"......%************-......",
"....._=**|12**3456*=:.....",
".....'***75829058a**).....",
".....!***bc58c5de***#.....",
".....~****bc55fg****~.....",
".....{****bc55fg****].....",
".....!***hi5j15kl***#.....",
".....)***m5jn315oa**p.....",
".....:=**|qn**3r56*=s.....",
"......,************@......",
"......}(**********tu......",
".......}'=******v@u.......",
".........s^#{]wps.........",
"..........................",
"..........................",
"..........................",
"..........................",
"..........................",
".........................."};
