/* XPM */
static char * desktop_xpm[] = {
"20 20 120 2",
"  	c None",
". 	c #C66B11",
"+ 	c #C86B0E",
"@ 	c #CB6C0E",
"# 	c #CE6D0E",
"$ 	c #D06D0E",
"% 	c #D36F0E",
"& 	c #D4700E",
"* 	c #D7710E",
"= 	c #DA730E",
"- 	c #DC740E",
"; 	c #DF750E",
"> 	c #E1760E",
", 	c #E4780E",
"' 	c #E6790E",
") 	c #E87A0E",
"! 	c #EB7C0E",
"~ 	c #ED7D0E",
"{ 	c #F17F12",
"] 	c #C15F00",
"^ 	c #C46100",
"/ 	c #C66200",
"( 	c #C96300",
"_ 	c #CB6500",
": 	c #CE6600",
"< 	c #D16700",
"[ 	c #D36800",
"} 	c #D66A00",
"| 	c #D86B00",
"1 	c #DB6C00",
"2 	c #DE6E00",
"3 	c #E06F00",
"4 	c #E37000",
"5 	c #E57100",
"6 	c #E87300",
"7 	c #EB7400",
"8 	c #ED7500",
"9 	c #BF5E00",
"0 	c #C26000",
"a 	c #C76200",
"b 	c #CA6400",
"c 	c #CC6500",
"d 	c #CF6600",
"e 	c #D46900",
"f 	c #D76A00",
"g 	c #D96B00",
"h 	c #DC6D00",
"i 	c #E16F00",
"j 	c #E47000",
"k 	c #E67200",
"l 	c #E97300",
"m 	c #BD5E00",
"n 	c #C05F00",
"o 	c #C56100",
"p 	c #C86300",
"q 	c #CD6500",
"r 	c #CF6700",
"s 	c #D26800",
"t 	c #D56900",
"u 	c #DA6C00",
"v 	c #DF6E00",
"w 	c #E27000",
"x 	c #E47100",
"y 	c #E77200",
"z 	c #BB5D00",
"A 	c #BE5E00",
"B 	c #C36000",
"C 	c #CB6400",
"D 	c #D06700",
"E 	c #DD6D00",
"F 	c #E87200",
"G 	c #BA5C00",
"H 	c #BC5D00",
"I 	c #C16000",
"J 	c #B85B00",
"K 	c #BD5D00",
"L 	c #BF5F00",
"M 	c #B65A00",
"N 	c #BB5C00",
"O 	c #C56200",
"P 	c #B45900",
"Q 	c #B75A00",
"R 	c #B95C00",
"S 	c #DE6D00",
"T 	c #B25800",
"U 	c #B55900",
"V 	c #B75B00",
"W 	c #C96400",
"X 	c #B35800",
"Y 	c #B55A00",
"Z 	c #B95B00",
"` 	c #D19963",
" .	c #DEB792",
"..	c #D9A97B",
"+.	c #DAA97A",
"@.	c #E1BA93",
"#.	c #D89D63",
"$.	c #BA7B3D",
"%.	c #BE8D5C",
"&.	c #BD854D",
"*.	c #BF864D",
"=.	c #C28F5D",
"-.	c #C27E3D",
";.	c #D36900",
">.	c #8B4500",
",.	c #8E4600",
"'.	c #914700",
").	c #934900",
"!.	c #954A00",
"~.	c #974A00",
"{.	c #994C00",
"].	c #9B4D00",
"^.	c #9E4E00",
"/.	c #9F4E00",
"(.	c #A25000",
"_.	c #A35100",
":.	c #A65200",
"<.	c #A85300",
"[.	c #AA5400",
"}.	c #A75200",
"                                        ",
"                                        ",
"                                        ",
"  . + @ # $ % & * = - ; > , ' ) ! ~ {   ",
"  ] ^ / ( _ : < [ } | 1 2 3 4 5 6 7 8   ",
"  9 0 ^ a b c d < e f g h 2 i j k l 7   ",
"  m n 0 o p b q r s t f u h v w x y l   ",
"  z A ] B / p C : D [ t | 1 E 3 w 5 F   ",
"  G H 9 I ^ a ( c : < e } g 1 2 i 4 k   ",
"  J G K L 0 o a b c d s e f g h v i x   ",
"  M J N A n B O p C q D s t | u E v w   ",
"  P Q R H A ] ^ / ( C : < [ } | 1 S 3   ",
"  T U V G H 9 0 ^ a W c d < e } g h 2   ",
"  T X Y J N m n 0 o p b q r s t f u h   ",
"  T T P M Z z `  ...+.@.#.: D [ t | 1   ",
"  T T T P Q R $.%.&.*.=.-.c : < ;.} g   ",
"  >.,.,.,.'.).!.~.{.].^./.(._.:.<.[.}.  ",
"                                        ",
"                                        ",
"                                        "};
