/* XPM */
static char * desktop_xpm[] = {
"20 20 104 2",
"  	c None",
". 	c #2A9398",
"+ 	c #289398",
"@ 	c #289499",
"# 	c #28959B",
"$ 	c #28969C",
"% 	c #28989E",
"& 	c #28999F",
"* 	c #289AA0",
"= 	c #299CA1",
"- 	c #299DA2",
"; 	c #299EA3",
"> 	c #299FA5",
", 	c #29A0A6",
"' 	c #2AA1A7",
") 	c #2AA2A9",
"! 	c #2AA4AA",
"~ 	c #2AA5AB",
"{ 	c #2EA7AD",
"] 	c #1A8A90",
"^ 	c #1B8C91",
"/ 	c #1B8D93",
"( 	c #1B8E94",
"_ 	c #1B9095",
": 	c #1C9197",
"< 	c #1C9298",
"[ 	c #1C9399",
"} 	c #1C959B",
"| 	c #1D969C",
"1 	c #1D979D",
"2 	c #1D999F",
"3 	c #1D9AA0",
"4 	c #1E9BA1",
"5 	c #1E9CA3",
"6 	c #1E9EA4",
"7 	c #1E9FA5",
"8 	c #1FA0A7",
"9 	c #1A898F",
"0 	c #1A8B90",
"a 	c #1B8C92",
"b 	c #1B8F94",
"c 	c #1B9096",
"d 	c #1C949A",
"e 	c #1D989E",
"f 	c #1E9BA2",
"g 	c #1E9DA3",
"h 	c #1E9FA6",
"i 	c #1A898E",
"j 	c #1A8A8F",
"k 	c #1B8B91",
"l 	c #1B8E93",
"m 	c #1B8F95",
"n 	c #1C9096",
"o 	c #1C9297",
"p 	c #1D9BA1",
"q 	c #1E9CA2",
"r 	c #1E9EA5",
"s 	c #1A888D",
"t 	c #1B8D92",
"u 	c #1C9196",
"v 	c #1E9DA4",
"w 	c #1A878C",
"x 	c #1C9499",
"y 	c #1A868B",
"z 	c #1A888E",
"A 	c #1C9398",
"B 	c #1D969D",
"C 	c #1D9AA1",
"D 	c #19858A",
"E 	c #1A878D",
"F 	c #1D99A0",
"G 	c #198489",
"H 	c #1D989F",
"I 	c #198388",
"J 	c #19868B",
"K 	c #1A868C",
"L 	c #72B2B5",
"M 	c #9CC8CA",
"N 	c #88BEC1",
"O 	c #87BEC1",
"P 	c #9ECACD",
"Q 	c #73B6B9",
"R 	c #19858B",
"S 	c #4E979B",
"T 	c #69A2A6",
"U 	c #5C9EA1",
"V 	c #5D9FA1",
"W 	c #6BA5A8",
"X 	c #4F9B9F",
"Y 	c #14666A",
"Z 	c #14696D",
"` 	c #146A6E",
" .	c #156B6F",
"..	c #156C70",
"+.	c #156D72",
"@.	c #156E72",
"#.	c #156F73",
"$.	c #167075",
"%.	c #167176",
"&.	c #167276",
"*.	c #167378",
"=.	c #167479",
"-.	c #16767A",
";.	c #16767B",
"                                        ",
"                                        ",
"                                        ",
"  . + @ # $ % & * = - ; > , ' ) ! ~ {   ",
"  ] ^ / ( _ : < [ } | 1 2 3 4 5 6 7 8   ",
"  9 0 a / b c : < d } | e 2 3 f g 6 h   ",
"  i j k a l m n o [ d } 1 e 2 p q g r   ",
"  s i ] k t ( m u < [ d | 1 e 3 4 5 v   ",
"  w s 9 0 ^ / ( _ : < x } | 1 2 3 f g   ",
"  y w z j 0 a / b c : A d } B e 2 C q   ",
"  D y E i j k t l m n o [ d | 1 e F p   ",
"  G D w s i ] ^ t ( m : < [ } | 1 H 3   ",
"  I G J w s 9 0 ^ / b c : < d } | e 2   ",
"  I I D y w i j k a l m n o [ d } 1 e   ",
"  I I G D K s L M N O P Q u < [ d | 1   ",
"  I I I G R w S T U V W X _ : < x } |   ",
"  Y Z Z Z `  ...+.@.#.$.%.&.*.=.-.;.=.  ",
"                                        ",
"                                        ",
"                                        "};
