/* XPM */
static char * start_xpm[] = {
"41 22 2 1",
" 	c #12131D",
".	c #799DE8",
"                                         ",
"                                         ",
"           ........    ........          ",
"           ........    ........          ",
"           ........    ........          ",
"           ........    ........          ",
"           ........    ........          ",
"           ........    ........          ",
"           ........    ........          ",
"           ........    ........          ",
"                                         ",
"                                         ",
"                                         ",
"           ........    ........          ",
"           ........    ........          ",
"           ........    ........          ",
"           ........    ........          ",
"           ........    ........          ",
"           ........    ........          ",
"           ........    ........          ",
"           ........    ........          ",
"                                         "};
