/* XPM */
static char * taskbuttonactive_xpm[] = {
"1 27 3 1",
" 	c #16161D",
".	c #12131D",
"+	c #9A70C3",
" ",
".",
".",
".",
".",
".",
".",
".",
".",
".",
".",
".",
".",
".",
".",
".",
".",
".",
".",
".",
".",
".",
".",
".",
".",
"+",
"+"};
